<?xml version="1.0" encoding="UTF-8" standalone="no"?>
<svg
   xmlns:dc="http://purl.org/dc/elements/1.1/"
   xmlns:cc="http://creativecommons.org/ns#"
   xmlns:rdf="http://www.w3.org/1999/02/22-rdf-syntax-ns#"
   xmlns:svg="http://www.w3.org/2000/svg"
   xmlns="http://www.w3.org/2000/svg"
   xmlns:sodipodi="http://sodipodi.sourceforge.net/DTD/sodipodi-0.dtd"
   xmlns:inkscape="http://www.inkscape.org/namespaces/inkscape"
   height="1080"
   viewBox="0 0 1920 1080"
   width="1920"
   id="svg2"
   version="1.1"
   inkscape:version="0.92.2 5c3e80d, 2017-08-06"
   sodipodi:docname="floorplan.svg">
  <metadata
     id="metadata98">
    <rdf:RDF>
      <cc:Work
         rdf:about="">
        <dc:format>image/svg+xml</dc:format>
        <dc:type
           rdf:resource="http://purl.org/dc/dcmitype/StillImage" />
        <dc:title />
      </cc:Work>
    </rdf:RDF>
  </metadata>
  <sodipodi:namedview
     pagecolor="#ffffff"
     bordercolor="#000000"
     borderopacity="1"
     objecttolerance="10"
     gridtolerance="10"
     guidetolerance="10"
     inkscape:pageopacity="0"
     inkscape:pageshadow="2"
     inkscape:window-width="1920"
     inkscape:window-height="1031"
     id="namedview96"
     showgrid="false"
     showborder="false"
     inkscape:zoom="0.56787565"
     inkscape:cx="333.86843"
     inkscape:cy="480.31079"
     inkscape:window-x="0"
     inkscape:window-y="1"
     inkscape:window-maximized="1"
     inkscape:current-layer="page1" />
  <defs
     id="defs4" />
  <g
     transform="translate(0.50000028,-0.50050849)"
     id="page1"
     style="stroke:none">
    <rect
       height="1080"
       x="0"
       y="0"
       width="1920"
       id="rect7"
       style="fill:#000000;stroke:none" />
    <g
       transform="translate(750,40)"
       id="g9"
       style="stroke:none">
      <g
         id="shape1"
         style="stroke:none">
        <path
           d="m 0,0 1140,0 15.1,-15.1 -1170.2,0 L 0,0 Z"
           id="path12"
           inkscape:connector-curvature="0"
           style="fill:#808080;stroke:none" />
        <path
           d="m 0,0 1140,0 m 15.1,-15.1 -1170.2,0"
           id="path14"
           inkscape:connector-curvature="0"
           style="fill:none;stroke:none" />
      </g>
      <g
         transform="matrix(0,1,-1,0,1140,0)"
         id="shape2"
         style="stroke:none">
        <path
           d="m 0,0 1000,0 15.1,-15.1 -1030.2,0 L 0,0 Z"
           id="path17"
           inkscape:connector-curvature="0"
           style="fill:#808080;stroke:none" />
        <path
           d="m 0,0 1000,0 m 15.1,-15.1 -1030.2,0"
           id="path19"
           inkscape:connector-curvature="0"
           style="fill:none;stroke:none" />
      </g>
      <g
         transform="matrix(0,-1,1,0,0,1000)"
         id="shape3"
         style="stroke:none">
        <path
           d="m 0,0 1000,0 15.1,-15.1 -1030.2,0 L 0,0 Z"
           id="path22"
           inkscape:connector-curvature="0"
           style="fill:#808080;stroke:none" />
        <path
           d="m 0,0 1000,0 m 15.1,-15.1 -1030.2,0"
           id="path24"
           inkscape:connector-curvature="0"
           style="fill:none;stroke:none" />
      </g>
      <g
         transform="matrix(-1,0,0,-1,1140,1000)"
         id="shape4"
         style="stroke:none">
        <path
           d="m 0,0 1140,0 15.1,-15.1 -1170.2,0 L 0,0 Z"
           id="path27"
           inkscape:connector-curvature="0"
           style="fill:#808080;stroke:none" />
        <path
           d="m 0,0 1140,0 m 15.1,-15.1 -1170.2,0"
           id="path29"
           inkscape:connector-curvature="0"
           style="fill:none;stroke:none" />
      </g>
    </g>
    <g
       transform="translate(887.6,24.9)"
       id="shape5"
       style="stroke:none">
      <path
         d="m 0,15.1 236.1,0 L 236.1,0 0,0 0,15.1 Z M 0,0 0,15.1 -7.6,15.1 -7.6,0 0,0 Z m 236.1,0 0,15.1 8,0 0,-15.1 -8,0 z M 4,3.6 l 0,4 -4,0 0,-4 4,0 z m 114,0 0,4 4,0 0,-4 -4,0 z m 0,4 4,0 0,4 -4,0 0,-4 z m 118.1,0 -4,0 0,4 4,0 0,-4 z"
         id="path32"
         inkscape:connector-curvature="0"
         style="fill:#6d6d6d;stroke:none" />
      <path
         d="m 0,0 0,15.1 -7.6,0 L -7.6,0 0,0 Z m 236.1,0 0,15.1 8,0 0,-15.1 -8,0 z M 4,3.6 l 0,4 -4,0 0,-4 4,0 z m 114,0 0,4 4,0 0,-4 -4,0 z m -114,2 114,0 m 4,4 110.1,0 m -114.1,-2 4,0 0,4 -4,0 0,-4 z m 118.1,0 -4,0 0,4 4,0 0,-4 z"
         id="path34"
         inkscape:connector-curvature="0"
         style="fill:none;stroke:none" />
    </g>
    <g
       transform="matrix(0,1,-1,0,1905.1,275.9)"
       id="shape6"
       style="stroke:none">
      <path
         d="m 0,15.1 236.1,0 L 236.1,0 0,0 0,15.1 Z M 0,0 0,15.1 -7.6,15.1 -7.6,0 0,0 Z m 236.1,0 0,15.1 8,0 0,-15.1 -8,0 z M 4,3.6 l 0,4 -4,0 0,-4 4,0 z m 114,0 0,4 4,0 0,-4 -4,0 z m 0,4 4,0 0,4 -4,0 0,-4 z m 118.1,0 -4,0 0,4 4,0 0,-4 z"
         id="path37"
         inkscape:connector-curvature="0"
         style="fill:#6d6d6d;stroke:none" />
      <path
         d="m 0,0 0,15.1 -7.6,0 L -7.6,0 0,0 Z m 236.1,0 0,15.1 8,0 0,-15.1 -8,0 z M 4,3.6 l 0,4 -4,0 0,-4 4,0 z m 114,0 0,4 4,0 0,-4 -4,0 z m -114,2 114,0 m 4,4 110.1,0 m -114.1,-2 4,0 0,4 -4,0 0,-4 z m 118.1,0 -4,0 0,4 4,0 0,-4 z"
         id="path39"
         inkscape:connector-curvature="0"
         style="fill:none;stroke:none" />
    </g>
    <g
       transform="matrix(0,1,-1,0,750,760)"
       id="shape7"
       style="stroke:none">
      <path
         d="m 0,0 178.7,0 0,15.1 L 0,15.1 0,0 Z m 0,0 0,15.1 -5,0 L -5,0 0,0 Z m 178.7,0 0,15.1 5,0 0,-15.1 -5,0 z m 0,0 0,-178.7 -5,0 0,178.7 5,0 z"
         id="path42"
         inkscape:connector-curvature="0"
         style="fill:#303030;stroke:none" />
      <path
         d="M 0,0 C 0,-98.7 80,-178.7 178.7,-178.7 M 0,0 0,15.1 -5,15.1 -5,0 0,0 Z m 178.7,0 0,15.1 5,0 0,-15.1 -5,0 z m 0,0 0,-178.7 -5,0 0,178.7 5,0 z"
         id="path44"
         inkscape:connector-curvature="0"
         style="fill:none;stroke:none" />
    </g>
    <g
       transform="matrix(-1,0,0,-1,1890,1040)"
       id="shape8"
       style="stroke:none">
      <path
         d="M 0,0 160,0 160,360 0,360 0,0 Z"
         id="path47"
         inkscape:connector-curvature="0"
         style="fill:#303030;stroke:none" />
      <path
         d="M 0,0 160,0 160,360 0,360 0,0 Z M 160,3 3,3 l 0,354 157,0"
         id="path49"
         inkscape:connector-curvature="0"
         style="fill:none;stroke:none" />
    </g>
    <g
       transform="matrix(-1,0,0,-1,1695,1040)"
       id="g51"
       style="stroke:none">
      <path
         d="m 12.3,0 495.4,0 c 6.8,0 12.3,5.6 12.3,12.5 l 0,615 c 0,6.9 -5.5,12.5 -12.3,12.5 L 12.3,640 C 5.5,640 0,634.4 0,627.5 L 0,12.5 C 0,5.6 5.5,0 12.3,0 Z"
         id="shape9"
         inkscape:connector-curvature="0"
         style="fill:#303030;stroke:none" />
      <path
         d="m 37.1,0 9.3,0 c 20.7,0 37.4,16 37.4,35.8 l 0,92.6 c 0,19.8 -16.7,35.8 -37.4,35.8 l -9.3,0 c -20.6,0 -37.3,-16 -37.3,-35.8 l 0,-92.6 C -0.2,16 16.5,0 37.1,0 Z"
         transform="matrix(0,1,-1,0,222.9,33.4)"
         id="shape10"
         inkscape:connector-curvature="0"
         style="fill:#303030;stroke:none" />
      <path
         d="m 37.1,0 9.3,0 c 20.7,0 37.4,16 37.4,35.8 l 0,92.6 c 0,19.8 -16.7,35.8 -37.4,35.8 l -9.3,0 c -20.6,0 -37.3,-16 -37.3,-35.8 l 0,-92.6 C -0.2,16 16.5,0 37.1,0 Z"
         transform="matrix(0,1,-1,0,462.4,33.4)"
         id="shape11"
         inkscape:connector-curvature="0"
         style="fill:#303030;stroke:none" />
      <path
         d="m 0,0 0,454.5 126.2,0 0,-444.8 L 0,0 Z"
         transform="translate(195.06,185.51)"
         id="shape12"
         inkscape:connector-curvature="0"
         style="fill:#303030;stroke:none" />
      <path
         d="m 520,0 0,7.2 c 0,0 -14.7,-1.6 -29.6,12.7 -15,14.3 -10.7,44.9 -10.7,44.9 L 0,26.1 0,23 0,0 520,0 Z"
         transform="translate(0,144.59)"
         id="shape13"
         inkscape:connector-curvature="0"
         style="fill:#303030;stroke:none" />
    </g>
    <g
       transform="translate(951.62,828.88)"
       id="g58"
       style="stroke:none">
      <g
         id="shape14"
         style="stroke:none">
        <path
           d="m 0,0 188.4,0 0,211.1 L 0,211.1 0,0 Z"
           id="path61"
           inkscape:connector-curvature="0"
           style="fill:#303030;stroke:none" />
        <path
           d="m 0,0 188.4,0 0,211.1 L 0,211.1 0,0 Z m 1.9,1.9 184.5,0 0,207.2 -184.5,0 0,-207.2"
           id="path63"
           inkscape:connector-curvature="0"
           style="fill:none;stroke:none" />
      </g>
    </g>
    <path
       d="m 1890,308.67701 -110,0 0,-134.33851 -560,0 0,-134.3385 670,0 0,268.67701 z"
       id="shape15"
       inkscape:connector-curvature="0"
       style="fill:#303030;stroke:none;stroke-width:1.33333004" />
    <g
       transform="matrix(0,1,-1,0,1620.6,198)"
       id="g66"
       style="stroke:none">
      <path
         d="m 0.3,39.6 0,62.3 c 0,0 4.7,17.1 16,27.7 9,9.4 24.5,9.9 24.5,9.9 l 64.1,0 c 0,0 48.5,-29.4 49.1,-69.3 C 154.4,30.4 101.1,0 101.1,0 L 38,0 C 38,0 20.1,2 8.8,16.8 -2.5,31.7 0.3,39.6 0.3,39.6 Z"
         transform="translate(0.01,15.63)"
         id="shape16"
         inkscape:connector-curvature="0"
         style="fill:#303030;stroke:none" />
      <path
         d="m 75.6,0 c 0,0 9.6,2.3 9.6,10 0,7.8 -9,11.2 -9,11.2 l -67.6,0 c 0,0 -8.7,-2.3 -8.7,-9.2 0,-6.9 6.3,-12 6.3,-12 l 69.4,0 z"
         transform="translate(49.19,0.56)"
         id="shape17"
         inkscape:connector-curvature="0"
         style="fill:#303030;stroke:none" />
      <path
         d="m 75.6,0 c 0,0 9.6,2.3 9.6,10 0,7.8 -9,11.2 -9,11.2 l -67.6,0 c 0,0 -8.7,-2.3 -8.7,-9.2 0,-6.9 6.3,-12 6.3,-12 l 69.4,0 z"
         transform="translate(49.19,148.65)"
         id="shape18"
         inkscape:connector-curvature="0"
         style="fill:#303030;stroke:none" />
      <path
         d="m 12.2,0.8 c 0,0 23.1,17.8 21.8,59.3 -1.6,50.9 -25.3,60.3 -25.3,60.3 0,0 -8.1,0.5 -8,-10.2 0,-0.8 5.1,-3.7 6.7,-46.7 C 6,6.7 -0.4,9.5 0.1,9 2.8,-3.8 12.2,0.8 12.2,0.8 Z"
         transform="translate(135.78,25.24)"
         id="shape19"
         inkscape:connector-curvature="0"
         style="fill:#303030;stroke:none" />
    </g>
    <g
       transform="matrix(0,1,-1,0,1211.8,40)"
       id="g72"
       style="stroke:none">
      <path
         d="M 0,15.5 C 0,7 2.2,0 4.9,0 c 2.8,0 5,7 5,15.5 0,8.6 -2.2,15.6 -5,15.6 C 2.2,31.1 0,24.1 0,15.5 Z"
         transform="translate(70.11,114.22)"
         id="shape20"
         inkscape:connector-curvature="0"
         style="fill:#303030;stroke:none" />
      <g
         transform="translate(0,-0.68)"
         id="g75"
         style="stroke:none">
        <g
           id="shape21"
           style="stroke:none">
          <path
             d="m 0,0 75.5,0 0,260.9 L 0,260.9 0,0 Z"
             id="path78"
             inkscape:connector-curvature="0"
             style="fill:#303030;stroke:none" />
          <path
             d="m 0,0 75.5,0 0,260.9 L 0,260.9 0,0 Z m 73.5,0 0,260.9"
             id="path80"
             inkscape:connector-curvature="0"
             style="fill:none;stroke:none" />
        </g>
        <path
           d="m 0,0 69.5,0 0,254.9 L 0,254.9 0,0 Z"
           transform="translate(2,3)"
           id="shape22"
           inkscape:connector-curvature="0"
           style="fill:#303030;stroke:none;stroke-dasharray:2, 5" />
      </g>
    </g>
    <g
       transform="matrix(0,1,-1,0,881.4,557.5)"
       id="g83"
       style="stroke:none">
      <path
         d="m 9.4,0 -9.8,7.9 113.2,103.7 6.2,-7 L 9.4,0 Z"
         transform="translate(14.1,5.07)"
         id="shape23"
         inkscape:connector-curvature="0"
         style="fill:#303030;stroke:none" />
      <path
         d="M 0,0 0,130 142.5,130 0,0 Z"
         id="shape24"
         inkscape:connector-curvature="0"
         style="fill:#303030;stroke:none" />
    </g>
    <path
       d="m 0,0 134.4,0 0,520 L 0,520 0,0 Z"
       transform="translate(750,40)"
       id="shape25"
       inkscape:connector-curvature="0"
       style="fill:#303030;stroke:none" />
    <path
       d="m 554,178 c 14.4,0 26,-11.6 26,-26 L 580,26 C 580,11.6 568.4,0 554,0 L 26,0 C 11.6,0 0,11.6 0,26 l 0,126 c 0,14.4 11.6,26 26,26 l 528,0 z"
       id="shape26"
       inkscape:connector-curvature="0"
       style="fill:#3e3938;stroke:none"
       transform="translate(60,102)" />
    <path
       d="m 141.09,209.64 c 0.2,0.8 0.2,1.6 0.2,2.4 -0.1,0.8 -0.2,1.4 -0.6,2 -0.3,0.6 -0.8,1.1 -1.5,1.4 -0.8,0.4 -1.8,0.6 -3,0.6 -1.8,0 -3,-0.4 -3.7,-1.2 -0.6,-0.9 -1.1,-2.3 -1.3,-4.2 l -4,-30.1 c -0.3,-1.3 -0.6,-1.9 -1,-1.9 -0.5,0 -0.9,0.6 -1.3,1.9 l -9.3,32 c -0.3,1 -0.7,1.9 -1.4,2.5 -0.6,0.6 -1.8,1 -3.6,1 -0.9,0 -1.7,-0.1 -2.3,-0.2 -0.6,-0.2 -1.1,-0.4 -1.5,-0.7 -0.4,-0.3 -0.7,-0.7 -0.9,-1.1 -0.2,-0.4 -0.4,-0.9 -0.5,-1.5 -1.6,-5.4 -3.2,-10.7 -4.8,-16 -1.6,-5.2 -3.2,-10.5 -4.7,-15.9 -0.4,-1.3 -0.8,-2 -1.2,-2 -0.4,0 -0.8,0.7 -1,2 l -3.9,29.5 c -0.3,2 -0.8,3.4 -1.6,4.4 -0.8,1 -2.3,1.5 -4.4,1.5 -1.7,0 -2.9,-0.5 -3.6,-1.5 -0.6,-1 -0.6,-2.6 -0.6,-4.9 l 7.4,-47.2 c 0.2,-2 1,-3.5 2.2,-4.5 1.2,-1.1 2.7,-1.6 4.4,-1.6 1.8,0 3.3,0.4 4.5,1.3 1.2,0.9 2.2,2.7 3,5.4 l 9.5,34.7 9.2,-34.9 c 0.8,-2.6 1.7,-4.4 3,-5.2 1.2,-0.9 2.7,-1.3 4.4,-1.3 1.6,0 3,0.5 4.3,1.6 1.3,1.1 2.2,2.7 2.5,4.7 l 7.1,47 z m 25.4,-40.2 c 3.8,0 7.1,0.6 9.8,1.8 2.7,1.2 5,2.9 6.6,5.1 1.7,2.1 3,4.7 3.8,7.6 0.8,3 1.2,6.1 1.2,9.5 0,3.5 -0.4,6.6 -1.2,9.5 -0.8,2.8 -2.1,5.3 -3.8,7.3 -1.8,2.1 -4,3.7 -6.7,4.9 -2.7,1.1 -5.9,1.7 -9.7,1.7 -3.8,0 -7,-0.6 -9.6,-1.8 -2.7,-1.2 -4.9,-2.8 -6.6,-4.9 -1.7,-2.1 -3,-4.6 -3.8,-7.4 -0.7,-2.9 -1.1,-6.1 -1.1,-9.5 0,-3.3 0.4,-6.5 1.1,-9.4 0.8,-2.9 2,-5.4 3.7,-7.6 1.7,-2.1 3.8,-3.8 6.5,-5 2.7,-1.2 6,-1.8 9.8,-1.8 z m 0,38.2 c 3.7,0 6.5,-1.3 8.2,-3.7 1.8,-2.5 2.6,-6 2.6,-10.5 0,-4.5 -0.8,-8.1 -2.5,-10.8 -1.6,-2.7 -4.5,-4 -8.5,-4 -2,0 -3.6,0.4 -4.9,1.2 -1.4,0.7 -2.4,1.8 -3.3,3.1 -0.8,1.4 -1.3,2.9 -1.7,4.7 -0.3,1.8 -0.5,3.7 -0.5,5.6 0,4.5 0.9,8.1 2.5,10.6 1.7,2.5 4.4,3.8 8.1,3.8 z m 83.5,-18.3 c 0,-1.8 -0.1,-3.4 -0.3,-4.7 -0.2,-1.3 -0.6,-2.4 -1.2,-3.3 -0.6,-0.9 -1.4,-1.6 -2.5,-2 -1,-0.5 -2.4,-0.7 -4,-0.7 -1.3,0 -2.5,0.1 -3.7,0.4 -1.1,0.3 -2.1,0.8 -2.9,1.6 -0.8,0.7 -1.5,1.7 -2,3.1 -0.4,1.3 -0.7,3 -0.7,5.1 l 0,23.7 c 0,1 -0.5,1.8 -1.4,2.4 -1,0.7 -2.3,1 -3.8,1.1 -1.6,0 -2.8,-0.3 -3.8,-1 -1,-0.7 -1.5,-1.5 -1.5,-2.5 l 0,-23.2 c 0,-3.6 -0.5,-6.3 -1.6,-8 -1.1,-1.8 -3.2,-2.7 -6.4,-2.7 -1.4,0 -2.6,0.1 -3.7,0.4 -1.2,0.3 -2.1,0.8 -3,1.6 -0.8,0.7 -1.4,1.7 -1.9,3.1 -0.4,1.3 -0.7,3 -0.7,5.1 l 0,23.7 c 0,1 -0.5,1.8 -1.4,2.5 -1,0.6 -2.3,1 -4,1 -1.6,0 -2.9,-0.4 -3.8,-1 -0.8,-0.7 -1.3,-1.5 -1.3,-2.5 l 0,-39.2 c 0,-1 0.5,-1.8 1.3,-2.3 0.8,-0.5 2.2,-0.8 4.1,-0.8 1.9,0 3.2,0.3 3.9,0.9 0.7,0.6 1.1,1.3 1.1,2.2 l 0,4.4 c 0.9,-2.3 2.3,-4.3 4.1,-5.9 1.8,-1.6 3.9,-2.4 6.4,-2.4 3.5,0 6.3,0.7 8.3,2.3 2,1.5 3.5,3.7 4.5,6.5 1.4,-2.5 3.4,-4.6 5.9,-6.3 2.5,-1.7 5.5,-2.5 8.8,-2.5 2,0 4.1,0.3 6.1,1 2,0.6 3.8,1.6 5.4,2.9 1.6,1.3 2.9,2.9 3.8,4.8 1,1.9 1.5,4.1 1.5,6.6 l 0,27.8 c 0,0.9 -0.2,1.7 -0.6,2.3 -0.4,0.7 -1.6,1.1 -3.6,1.2 -2,0 -3.4,-0.2 -4.2,-0.7 -0.8,-0.6 -1.2,-1.5 -1.2,-2.8 l 0,-23.2 z"
       id="device_tracker.chenxindeiphone"
       inkscape:connector-curvature="0"
       style="fill:#a3cf62;stroke:none"
       inkscape:label="#shape27" />
    <path
       d="m 499.9,158.77 c 4.3,0 8,0.7 11.2,2.2 3.1,1.5 5.7,3.5 7.7,6.1 2,2.6 3.5,5.6 4.5,9.1 1,3.6 1.4,7.4 1.4,11.5 0,4.4 -0.5,8.3 -1.4,11.9 -1,3.6 -2.6,6.6 -4.6,9.2 -2.1,2.5 -4.6,4.5 -7.7,5.9 -3,1.4 -6.6,2.1 -10.7,2.1 l -15.8,0 c -1.9,0 -3.2,-0.3 -3.7,-1 -0.8,-0.6 -0.8,-1.5 -0.8,-2.8 l 0,-50.4 c 0,-1.3 0,-2.2 0.7,-2.8 0.5,-0.7 1.8,-1 3.8,-1 l 15.4,0 z m -9.1,49.3 9.5,0 c 9.1,0 13.6,-6.9 13.6,-20.7 0,-3.1 -0.2,-6 -0.7,-8.5 -0.5,-2.5 -1.4,-4.6 -2.6,-6.2 -1.2,-1.7 -2.8,-3 -4.8,-3.9 -2,-0.9 -4.5,-1.3 -7.6,-1.3 l -7.4,0 0,40.6 z m 49.3,-13.1 c 0,5 0.9,8.7 2.7,10.9 1.8,2.2 4.4,3.3 7.6,3.3 3.2,0 5.5,-1.2 7,-3.8 1.5,-2.5 2.3,-5.9 2.2,-10.3 -0.1,-4.5 -0.8,-8.1 -2.4,-10.7 -1.5,-2.6 -3.8,-4 -7,-4.1 -3.2,-0.1 -5.7,1.1 -7.5,3.5 -1.8,2.4 -2.7,6.1 -2.6,11.2 z m 19.3,15.6 c -1.3,2.9 -2.9,4.8 -4.8,5.8 -1.9,1.1 -4.2,1.6 -6.9,1.6 -2.7,0 -5.2,-0.5 -7.4,-1.5 -2.3,-1 -4.2,-2.5 -5.8,-4.5 -1.6,-2 -2.9,-4.4 -3.8,-7.2 -0.8,-2.9 -1.3,-6.2 -1.3,-9.8 0,-4.5 0.5,-8.3 1.5,-11.3 1.1,-3.1 2.4,-5.5 4.1,-7.4 1.7,-1.9 3.7,-3.3 5.9,-4.1 2.2,-0.8 4.5,-1.2 6.9,-1.2 2.7,0 5,0.8 7.1,2.2 2,1.5 3.6,3.7 4.6,6.5 l 0,-3.5 c 0,-0.9 0.4,-1.8 1.3,-2.8 0.9,-1 2.2,-1.5 4,-1.5 1.7,0 3,0.5 3.9,1.5 0.9,1 1.3,1.9 1.3,2.8 l 0,37 c 0,0.9 -0.3,1.8 -1,2.8 -0.7,1 -2.2,1.5 -4.3,1.5 -1.1,0 -2,-0.1 -2.7,-0.4 -0.7,-0.3 -1.2,-0.6 -1.6,-1.1 -0.4,-0.4 -0.7,-0.9 -0.8,-1.4 -0.2,-0.5 -0.2,-1 -0.2,-1.4 l 0,-2.6 z m 25.5,-15.6 c 0.1,5 1,8.6 2.8,10.8 1.8,2.3 4.3,3.4 7.5,3.4 3.1,0 5.4,-1.3 6.9,-3.8 1.5,-2.6 2.2,-6 2.2,-10.3 0,-4.5 -0.8,-8.1 -2.4,-10.7 -1.6,-2.6 -3.9,-4 -6.9,-4.1 -3.1,-0.1 -5.5,1.1 -7.4,3.5 -1.8,2.5 -2.7,6.2 -2.7,11.2 z m 19.2,15.6 c -0.4,1 -0.9,1.9 -1.7,2.8 -0.8,0.9 -1.7,1.6 -2.8,2.3 -1,0.7 -2.2,1.3 -3.5,1.7 -1.4,0.4 -2.8,0.6 -4.3,0.6 -2.5,0 -4.9,-0.5 -7,-1.5 -2.1,-1 -4,-2.5 -5.6,-4.5 -1.6,-2 -2.8,-4.4 -3.7,-7.2 -0.9,-2.9 -1.3,-6.2 -1.3,-9.8 0,-4.5 0.5,-8.3 1.7,-11.3 1.1,-3.1 2.5,-5.5 4.2,-7.4 1.8,-1.9 3.8,-3.3 5.9,-4.1 2.2,-0.8 4.4,-1.2 6.6,-1.2 2.4,0 4.7,0.8 6.9,2.4 2.2,1.6 3.8,3.7 4.8,6.3 l 0,-21 c 0,-0.9 0.4,-1.8 1.3,-2.8 0.8,-1 2.2,-1.5 3.9,-1.5 1.8,0 3.1,0.6 4,1.5 0.9,1 1.3,1.9 1.3,2.8 l 0,54.6 c 0,0.4 0,0.9 -0.2,1.4 -0.2,0.5 -0.4,1 -0.9,1.4 -0.4,0.5 -0.9,0.8 -1.6,1.1 -0.7,0.3 -1.6,0.4 -2.6,0.4 -1.2,0 -2,-0.1 -2.7,-0.4 -0.7,-0.3 -1.2,-0.6 -1.6,-1.1 -0.4,-0.4 -0.7,-0.9 -0.9,-1.4 -0.1,-0.5 -0.2,-1 -0.2,-1.4 l 0,-2.7 z"
       id="device_tracker.huawei"
       inkscape:connector-curvature="0"
       style="fill:#a3cf62;stroke:none"
       inkscape:label="#shape28" />
    <path
       d="m 373.68,211.57 c 0.1,0.8 0.2,1.6 0.2,2.4 -0.1,0.8 -0.3,1.5 -0.6,2.1 -0.3,0.5 -0.9,1 -1.6,1.4 -0.7,0.4 -1.7,0.5 -3,0.5 -1.8,0.1 -3,-0.3 -3.7,-1.2 -0.6,-0.9 -1.2,-2.3 -1.4,-4.2 l -4,-30.4 c -0.2,-1.3 -0.6,-1.9 -1,-1.9 -0.5,0 -0.9,0.6 -1.3,1.9 l -9.4,32.3 c -0.3,1.1 -0.7,1.9 -1.4,2.6 -0.6,0.6 -1.9,0.9 -3.6,0.9 -1,0 -1.8,0 -2.4,-0.2 -0.6,-0.1 -1.1,-0.3 -1.5,-0.6 -0.4,-0.4 -0.7,-0.7 -0.9,-1.1 -0.2,-0.5 -0.4,-1 -0.5,-1.6 -1.7,-5.4 -3.3,-10.8 -4.9,-16.1 -1.6,-5.3 -3.2,-10.7 -4.7,-16.1 -0.4,-1.4 -0.8,-2 -1.3,-2 -0.4,0 -0.7,0.6 -0.9,2 l -4,29.8 c -0.3,2 -0.8,3.5 -1.6,4.5 -0.8,0.9 -2.3,1.4 -4.4,1.4 -1.8,0 -3,-0.5 -3.7,-1.4 -0.6,-1 -0.6,-2.7 -0.6,-5 l 7.5,-47.8 c 0.2,-1.9 1,-3.4 2.2,-4.5 1.2,-1.1 2.7,-1.6 4.5,-1.6 1.8,0 3.3,0.4 4.5,1.3 1.3,0.9 2.3,2.7 3.1,5.4 l 9.6,35.2 9.3,-35.3 c 0.7,-2.7 1.7,-4.4 3,-5.3 1.2,-0.9 2.7,-1.3 4.4,-1.3 1.6,0 3.1,0.5 4.4,1.6 1.3,1.1 2.2,2.7 2.5,4.8 l 7.2,47.5 z m 32.1,-20.6 c 0,-1.4 -0.1,-2.7 -0.4,-4.1 -0.2,-1.3 -0.6,-2.4 -1.2,-3.4 -0.6,-1 -1.4,-1.8 -2.3,-2.4 -1,-0.6 -2.3,-0.8 -3.9,-0.8 -2,0 -3.6,0.3 -4.8,1 -1.3,0.7 -2.2,1.6 -2.9,2.7 -0.7,1.1 -1.1,2.3 -1.4,3.5 -0.2,1.3 -0.3,2.5 -0.3,3.5 l 17.2,0 z m -7.5,27.9 c -3.4,0 -6.4,-0.6 -8.9,-1.7 -2.6,-1.1 -4.7,-2.7 -6.3,-4.8 -1.7,-2 -3,-4.5 -3.8,-7.4 -0.9,-2.9 -1.3,-6.2 -1.3,-9.8 0,-3.4 0.4,-6.7 1.3,-9.6 0.8,-3 2.1,-5.6 3.8,-7.7 1.7,-2.2 3.8,-3.9 6.4,-5.1 2.5,-1.3 5.4,-1.9 8.8,-1.9 3.2,0 5.9,0.6 8.1,1.7 2.3,1.1 4.1,2.6 5.6,4.5 1.4,1.9 2.4,4.2 3.1,6.7 0.7,2.5 1,5.2 1,8 0,2.3 -0.3,4.1 -0.9,5.4 -0.6,1.2 -1.8,1.8 -3.5,1.8 l -23.1,0 c 0,1.3 0.1,2.6 0.4,3.8 0.3,1.2 0.8,2.4 1.6,3.4 0.7,1 1.8,1.8 3,2.4 1.3,0.6 2.9,0.9 4.9,0.9 2.5,0 4.5,-0.3 5.9,-1.1 1.4,-0.8 2.6,-1.6 3.4,-2.6 0.6,-0.7 1.2,-1.1 1.8,-1.3 0.7,-0.2 1.2,-0.2 1.8,-0.1 0.5,0.2 1,0.4 1.4,0.7 0.4,0.3 0.8,0.5 1.1,0.6 1,0.9 1.4,2.1 1.2,3.5 -0.2,1.5 -1,3 -2.4,4.4 -1.4,1.4 -3.3,2.7 -5.7,3.7 -2.4,1.1 -5.3,1.6 -8.7,1.6 z"
       id="device_tracker.iphone7"
       inkscape:connector-curvature="0"
       style="fill:#a3cf62;stroke:none"
       inkscape:label="#shape29" />
    <path
       d="m 292.32495,579.99 c 15.32772,0 27.67505,-11.6 27.67505,-26 l 0,-191.8 c 0,-14.4 -12.34733,-26 -27.67505,-26 l -206.498441,0 c -15.32772,0 -27.675049,11.6 -27.675049,26 l 0,191.8 c 0,14.4 12.347329,26 27.675049,26 l 206.498441,0 z"
       id="shape30"
       inkscape:connector-curvature="0"
       style="fill:#3e3938;stroke:none" />
    <path
       d="m 150.81,405.35 0,-3.4 c 0,-0.9 0.1,-1.5 0.4,-2.1 l -13.3,0.6 c -2.5,0.1 -4.3,-0.3 -5.5,-1.2 -1.1,-0.8 -1.7,-1.8 -1.7,-3 0,-0.7 0.3,-1.5 0.8,-2.2 0.5,-0.8 1.2,-1.4 2.2,-1.8 1.2,-0.7 2.6,-1.5 4,-2.4 1.5,-1 2.8,-1.8 4,-2.7 l -4.8,0 c -1.2,0 -2.1,-0.2 -2.7,-0.6 -0.6,-0.4 -0.8,-1.2 -0.8,-2.4 0,-1.1 0.2,-1.9 0.6,-2.5 0.5,-0.7 1.4,-1 2.8,-1 l 34.4,0 c 1.3,0 2.3,0.3 2.8,1 0.5,0.6 0.8,1.4 0.8,2.5 0,1.2 -0.3,2 -0.8,2.4 -0.6,0.4 -1.5,0.6 -2.8,0.6 l -1.1,0 c 1.7,1.6 3.3,3.2 4.7,4.8 1.4,1.7 2.9,3.3 4.3,4.9 1,1.3 1.4,2.3 1.4,3.2 -0.1,0.8 -0.7,1.6 -1.6,2.3 -0.9,0.6 -1.8,0.9 -2.9,0.7 -1,-0.1 -2,-0.8 -3,-2 -0.2,-0.4 -0.5,-0.7 -0.7,-1 -0.3,-0.4 -0.6,-0.7 -0.9,-1.1 l -14,0.6 c 0.4,0.6 0.7,1.4 0.7,2.4 l 0,3.4 18.7,0 c 1.4,0 2.3,0.3 2.9,0.9 0.5,0.6 0.8,1.4 0.8,2.4 0,1.2 -0.3,2.1 -0.9,2.6 -0.6,0.5 -1.5,0.7 -2.8,0.7 l -18.7,0 0,5.3 22.9,0 c 1.4,0 2.4,0.3 2.9,0.8 0.5,0.4 0.8,1.2 0.8,2.3 0,1.3 -0.3,2.2 -0.9,2.7 -0.6,0.6 -1.5,0.8 -2.8,0.8 l -53,0 c -1.3,0 -2.2,-0.2 -2.8,-0.7 -0.5,-0.5 -0.8,-1.4 -0.8,-2.7 0,-1.1 0.2,-1.9 0.7,-2.4 0.4,-0.5 1.4,-0.8 2.9,-0.8 l 22.8,0 0,-5.3 -18.7,0 c -1.2,0 -2.1,-0.2 -2.7,-0.7 -0.6,-0.5 -0.9,-1.4 -0.9,-2.6 0,-1 0.2,-1.8 0.7,-2.4 0.5,-0.6 1.5,-0.9 2.9,-0.9 l 18.7,0 z m -0.2,-35.2 c 0,-0.2 -0.1,-0.4 -0.2,-0.5 0,-0.2 -0.1,-0.3 -0.1,-0.4 -0.6,-0.9 -0.9,-1.9 -0.7,-2.8 0.2,-1 0.8,-1.8 2,-2.4 0.4,-0.2 0.8,-0.4 1.3,-0.5 0.6,0 1.1,0 1.6,0.1 0.5,0.1 1.1,0.4 1.6,0.8 0.5,0.4 0.9,1 1.3,1.8 0.2,0.4 0.4,1 0.7,1.7 0.2,0.6 0.5,1.4 0.7,2.2 l 16.5,0 c 6.6,-0.4 9.6,1.8 8.9,6.4 -0.2,0.8 -0.3,1.6 -0.4,2.3 -0.1,0.8 -0.3,1.7 -0.6,2.6 -0.6,1.6 -1.2,2.7 -2,3.1 -0.8,0.4 -1.9,0.3 -3.2,-0.2 -0.7,-0.3 -1.2,-0.5 -1.5,-0.8 -0.3,-0.3 -0.6,-0.7 -0.6,-1.1 -0.1,-0.4 -0.1,-0.9 0,-1.5 0.1,-0.6 0.3,-1.3 0.6,-2.2 0.2,-0.6 0.2,-1.1 0,-1.5 -0.2,-0.5 -0.6,-0.7 -1.2,-0.7 l -40.3,0 c -0.7,0 -1.3,0.1 -1.5,0.5 -0.3,0.3 -0.5,0.9 -0.5,1.8 l 0,2 c 0,1.2 -0.3,2.2 -1,2.8 -0.7,0.7 -1.6,1 -2.7,1 -1.2,0 -2.2,-0.3 -2.8,-0.8 -0.7,-0.6 -1,-1.5 -1,-2.9 l 0,-3.5 c 0,-2.5 0.6,-4.3 1.8,-5.5 1.2,-1.2 3.1,-1.8 5.7,-1.8 l 17.6,0 z m 13.1,20.9 c -0.6,-0.5 -1,-1.1 -1.2,-1.8 -0.2,-0.8 -0.2,-1.5 0,-2.1 l -9.9,0 c -1.2,1 -2.4,1.9 -3.6,2.9 -1.3,0.9 -2.5,1.7 -3.6,2.5 -0.6,0.3 -0.9,0.6 -0.8,0.7 0.1,0.2 0.4,0.2 0.9,0.2 1.9,0 3.7,0 5.4,0 1.6,0 3.2,0 4.8,0 1.6,0 3.2,0 4.9,-0.1 1.6,0 3.3,-0.1 5.2,-0.2 -0.3,-0.2 -0.7,-0.5 -1,-0.9 -0.3,-0.4 -0.6,-0.8 -1.1,-1.2 z m 42.2,-13.3 c -0.8,1 -1.7,1.4 -2.6,1.4 -0.9,0 -2,-0.5 -3.4,-1.5 -0.7,-0.5 -1.3,-0.9 -1.9,-1.3 -0.5,-0.3 -1,-0.7 -1.5,-1 -0.5,-0.3 -1,-0.7 -1.5,-1 -0.6,-0.3 -1.2,-0.7 -1.9,-1.1 -1.2,-0.7 -1.9,-1.5 -2.1,-2.2 -0.2,-0.8 0,-1.9 0.7,-3.2 0.5,-1.1 1.2,-1.7 2.3,-1.8 1,-0.1 2.1,0.2 3.4,0.9 0.8,0.6 1.5,1 2.2,1.4 0.6,0.3 1.2,0.7 1.7,1 0.5,0.4 1.1,0.8 1.6,1.1 0.5,0.4 1.1,0.8 1.8,1.3 1.1,0.9 1.9,1.8 2.2,2.8 0.3,1 0,2 -1,3.2 z m -1,27.3 c -1.3,3.1 -2.7,6.2 -4.2,9.1 -1.6,2.9 -3.3,5.8 -5.3,8.6 -0.8,1.2 -1.8,1.9 -2.9,2.1 -1.2,0.1 -2.2,-0.2 -3,-0.8 -1,-0.8 -1.5,-1.7 -1.5,-2.6 -0.1,-1 0.4,-2.2 1.6,-3.7 1.5,-2.1 3,-4.5 4.5,-7.3 1.4,-2.7 2.7,-5.5 3.9,-8.3 0.6,-1.5 1.3,-2.4 2,-2.9 0.8,-0.4 1.8,-0.4 3,0.1 1.2,0.4 2,1.1 2.4,1.9 0.4,0.9 0.2,2.2 -0.5,3.8 z m -3.5,-17.7 c 1.2,0.9 2,1.9 2.2,2.8 0.2,0.9 -0.1,2 -1.1,3.1 -0.7,1 -1.6,1.5 -2.5,1.5 -0.9,-0.1 -2,-0.6 -3.4,-1.5 -0.9,-0.6 -1.9,-1.2 -3,-2 -1.2,-0.7 -2.5,-1.5 -3.9,-2.3 -2.3,-1.4 -2.7,-3.3 -1.4,-5.6 1.3,-2 3.2,-2.3 5.7,-0.8 1.8,1 3.3,1.9 4.4,2.7 1.1,0.7 2.1,1.4 3,2.1 z m 44.9,29.1 c 1.3,0 2.2,0.2 2.6,0.8 0.5,0.6 0.7,1.5 0.7,2.6 0,1.1 -0.2,2 -0.7,2.6 -0.4,0.6 -1.3,0.9 -2.6,0.9 l -41.7,0 c -1.3,0 -2.2,-0.3 -2.7,-0.9 -0.4,-0.6 -0.6,-1.5 -0.6,-2.6 0,-1.1 0.2,-2 0.6,-2.6 0.5,-0.6 1.4,-0.8 2.7,-0.8 l 2.5,0 0,-13.4 c 0,-1.3 0.1,-2.4 0.3,-3.2 0.2,-0.9 0.5,-1.6 1,-2.1 0.5,-0.5 1.1,-0.8 1.9,-1.1 0.8,-0.2 1.8,-0.3 3,-0.3 l 25.3,0 c 1.1,0 2.1,0.1 2.9,0.3 0.8,0.3 1.5,0.6 1.9,1.1 0.5,0.5 0.9,1.2 1.1,2.1 0.2,0.8 0.3,1.9 0.3,3.2 l 0,13.4 1.5,0 z m -4.2,-29.6 c 0,2.4 -0.5,4.1 -1.5,4.9 -1,0.9 -2.5,1.3 -4.7,1.3 l -20.2,0 c -2.3,0 -3.9,-0.4 -4.8,-1.3 -0.9,-0.8 -1.4,-2.5 -1.4,-4.9 l 0,-13.6 c 0,-2.3 0.5,-4 1.4,-4.8 0.9,-0.9 2.5,-1.4 4.8,-1.4 l 20.2,0 c 2.2,0 3.7,0.5 4.7,1.4 1,0.8 1.5,2.5 1.5,4.8 l 0,13.6 z m -25.9,-1.3 c 0,0.5 0,0.8 0.2,0.9 0.1,0.1 0.4,0.2 0.9,0.2 l 17,0 c 0.5,0 0.8,-0.1 0.9,-0.2 0.1,-0.1 0.2,-0.4 0.2,-1 l 0,-2.4 -19.2,0 0,2.5 z m 19.2,-10.8 c 0,-0.5 -0.1,-0.9 -0.3,-1 -0.2,-0.2 -0.5,-0.3 -0.9,-0.3 l -17.1,0 c -0.4,0 -0.7,0.1 -0.8,0.2 -0.1,0.1 -0.1,0.4 -0.1,0.8 l 0,2.5 19.2,0 0,-2.2 z m -11.4,41.7 4,0 0,-13.3 -4,0 0,13.3 z m -10.3,0 3.8,0 0,-13.3 -2.7,0 c -0.4,0 -0.7,0.1 -0.9,0.2 -0.1,0.1 -0.2,0.4 -0.2,0.9 l 0,12.2 z m 20.8,-13.3 0,13.3 3.6,0 0,-12.1 c 0,-0.5 -0.1,-0.8 -0.2,-1 0,-0.1 -0.3,-0.2 -0.8,-0.2 l -2.6,0 z"
       id="shape31"
       inkscape:connector-curvature="0"
       style="fill:#3498db;stroke:none" />
    <path
       d="m 607.51436,579.99 c 15.79328,0 28.51564,-11.6 28.51564,-26 l 0,-191.8 c 0,-14.4 -12.72236,-26 -28.51564,-26 l -202.46105,0 c -15.79328,0 -28.51565,11.6 -28.51565,26 l 0,191.8 c 0,14.4 12.72237,26 28.51565,26 l 202.46105,0 z"
       id="shape32"
       inkscape:connector-curvature="0"
       style="fill:#3e3938;stroke:none" />
    <path
       d="m 500.97,416.45 c 1.4,0 2.3,0.3 2.8,1 0.5,0.7 0.7,1.6 0.7,2.7 0,1 -0.3,1.9 -0.8,2.6 -0.5,0.7 -1.4,1 -2.7,1 l -39.9,0 c -1.3,0 -2.2,-0.3 -2.6,-1 -0.5,-0.7 -0.8,-1.6 -0.8,-2.6 0,-1.1 0.2,-2 0.7,-2.7 0.4,-0.7 1.3,-1 2.7,-1 l 10.9,0 0,-21.3 -3.9,0 c -2.3,0 -3.9,-0.5 -4.8,-1.5 -0.9,-1.1 -1.3,-2.7 -1.3,-5 l 0,-16.3 c 0,-2.3 0.4,-3.9 1.3,-5 0.9,-1 2.5,-1.5 4.8,-1.5 l 26.4,0 c 2.4,0 4,0.5 4.8,1.5 0.9,1 1.4,2.7 1.4,5 l 0,16.3 c 0,2.3 -0.5,3.9 -1.3,5 -0.9,1 -2.5,1.5 -4.9,1.5 l -3.6,0 0,21.3 10.1,0 z m -42.9,-11.8 c -0.6,1.9 -1.2,3.6 -1.8,5.1 -0.6,1.6 -1.2,3.1 -1.8,4.5 -0.6,1.4 -1.2,2.8 -1.8,4.1 -0.7,1.4 -1.3,2.8 -2,4.2 -0.7,1.2 -1.6,2 -2.6,2.3 -1.1,0.3 -2,0.2 -2.9,-0.4 -0.9,-0.8 -1.5,-1.6 -1.7,-2.5 0,-1 0.3,-2.3 1.2,-3.9 1.3,-2.2 2.5,-4.6 3.7,-7.1 1.2,-2.6 2.3,-5.4 3.1,-8.6 0.4,-1.5 0.9,-2.4 1.6,-2.9 0.6,-0.5 1.6,-0.6 2.8,-0.3 1.3,0.3 2.1,0.9 2.5,1.7 0.4,0.9 0.3,2.2 -0.3,3.8 z m 42.8,-7.8 c 1.2,0.3 2,0.8 2.3,1.6 0.3,0.8 0.2,2.1 -0.2,3.9 -0.3,1 -0.6,2 -0.9,2.8 -0.2,0.9 -0.5,1.7 -0.8,2.5 -0.3,0.7 -0.6,1.6 -1,2.4 -0.4,0.9 -0.9,1.9 -1.4,3 -0.6,1.1 -1.3,1.8 -2.1,2 -0.7,0.2 -1.6,0.1 -2.4,-0.2 -1.1,-0.5 -1.8,-1.3 -1.9,-2.3 -0.2,-1 0.1,-2.1 0.7,-3.2 0.8,-1.6 1.5,-3.1 2,-4.5 0.4,-1.4 0.9,-3 1.4,-4.8 0.3,-1.1 0.7,-2 1.4,-2.7 0.6,-0.6 1.6,-0.8 2.9,-0.5 z m -34.2,2.7 c 0.8,1.6 1.4,3.3 1.9,4.9 0.6,1.6 1.1,3.3 1.5,4.9 0.5,1.5 0.6,2.7 0.3,3.5 -0.4,0.8 -1.1,1.3 -2.2,1.6 -1.4,0.5 -2.3,0.4 -3,-0.2 -0.6,-0.7 -1.1,-1.6 -1.4,-2.8 -0.3,-1.1 -0.6,-1.9 -0.8,-2.6 -0.2,-0.7 -0.4,-1.4 -0.6,-2 -0.3,-0.7 -0.5,-1.4 -0.8,-2.1 -0.2,-0.8 -0.6,-1.7 -1,-2.8 -0.2,-0.8 -0.4,-1.5 -0.4,-2.3 -0.1,-0.8 0.3,-1.5 1.2,-2.2 1.1,-0.6 2.2,-0.8 3.2,-0.6 0.9,0.2 1.7,1.1 2.1,2.7 z m -8.9,-28.6 c 1.4,1.1 2.1,2 2.2,2.9 0.1,0.9 -0.4,1.9 -1.3,3.1 -0.8,1.1 -1.6,1.5 -2.6,1.5 -0.9,-0.1 -1.9,-0.5 -3,-1.4 -0.5,-0.4 -1.1,-0.8 -1.5,-1.2 -0.5,-0.3 -1,-0.6 -1.4,-0.9 -0.5,-0.4 -0.9,-0.7 -1.4,-1 -0.5,-0.3 -1,-0.7 -1.6,-1.1 -1,-0.7 -1.6,-1.5 -1.9,-2.3 -0.3,-0.8 0,-1.8 0.6,-3 1.2,-2 3,-2.3 5.4,-0.9 1.2,0.8 2.4,1.5 3.4,2.1 1,0.6 2,1.3 3.1,2.2 z m -1.8,15.7 c 0.7,0.6 1.2,1.1 1.5,1.5 0.4,0.5 0.6,0.9 0.6,1.3 0,0.4 0,0.8 -0.3,1.3 -0.2,0.4 -0.5,0.9 -1,1.5 -0.7,0.9 -1.4,1.4 -2.3,1.5 -0.8,0.1 -1.9,-0.3 -3.1,-1.3 -0.7,-0.5 -1.4,-1 -1.8,-1.4 -0.5,-0.3 -1,-0.6 -1.4,-0.9 -0.3,-0.3 -0.7,-0.5 -1.1,-0.8 -0.4,-0.2 -0.9,-0.5 -1.5,-0.8 -2.1,-1.2 -2.7,-3.1 -1.4,-5.5 1.2,-1.8 3,-2.1 5.3,-0.8 1.1,0.6 2.1,1.2 3.1,1.8 1,0.6 2.1,1.5 3.4,2.6 z m 37.8,-2.8 -24.9,0 0,3.2 c 0,0.8 0.4,1.1 1.2,1.1 l 22.6,0 c 0.4,0 0.7,0 0.9,-0.2 0.1,-0.1 0.2,-0.4 0.2,-0.9 l 0,-3.2 z m -15.1,32.6 5.6,0 0,-21.3 -5.6,0 0,21.3 z m 15.1,-42.6 c 0,-0.6 -0.4,-1 -1.1,-1 l -22.6,0 c -0.5,0 -0.8,0.1 -1,0.2 -0.1,0.2 -0.2,0.4 -0.2,0.9 l 0,3.2 24.9,0 0,-3.3 z m 30.6,31.5 -1.1,-0.3 c -1.1,0 -1.9,-0.3 -2.3,-1 -0.5,-0.7 -0.7,-1.4 -0.7,-2.2 0,-0.8 0.2,-1.4 0.7,-2.1 0.4,-0.6 1.2,-0.9 2.3,-0.9 l 33.6,0 c 1.3,0 2.4,0.2 3.3,0.7 0.9,0.5 1.6,1.2 2,2 0.5,0.8 0.6,1.6 0.5,2.6 -0.2,0.9 -0.6,1.8 -1.4,2.7 -1.6,1.8 -3.2,3.4 -4.9,4.9 -1.8,1.5 -3.6,2.9 -5.7,4.1 1.2,0.4 2.3,0.7 3.3,1 1,0.3 2.1,0.6 3.2,0.8 1.1,0.3 2.3,0.5 3.6,0.7 1.2,0.3 2.6,0.4 4.2,0.6 1.3,0.2 2.2,0.6 2.6,1.2 0.4,0.6 0.4,1.4 0.4,2.3 -0.2,0.6 -0.4,1.1 -0.6,1.4 -0.1,0.4 -0.4,0.7 -0.8,0.8 -0.4,0.2 -0.9,0.3 -1.6,0.4 -0.7,0 -1.5,0 -2.5,-0.1 -3.3,-0.4 -6.5,-1 -9.6,-1.9 -3.2,-0.9 -6.4,-2 -9.8,-3.3 -3.3,1.4 -6.9,2.5 -10.6,3.4 -3.8,0.9 -7.7,1.6 -11.9,2.2 -1.6,0.1 -2.7,0 -3.4,-0.4 -0.7,-0.4 -1,-1.2 -1.1,-2.3 -0.1,-1.1 0.2,-1.8 0.9,-2.4 0.7,-0.5 1.6,-0.8 2.8,-1 2.7,-0.3 5.4,-0.7 8.1,-1.1 2.6,-0.5 5.2,-1.2 7.6,-2.1 -1.9,-1.3 -3.8,-2.9 -5.8,-4.7 -1.9,-1.9 -3.7,-3.9 -5.3,-6 z m 43.2,-32.8 c 0,1.4 -0.3,2.3 -0.9,2.7 -0.5,0.4 -1.5,0.6 -2.7,0.6 l -43.3,0 c -1.2,0 -1.9,0.2 -2.2,0.6 -0.4,0.4 -0.6,1.3 -0.6,2.6 l 0,17.5 c 0,2.6 0,5 -0.2,7.2 -0.1,2.3 -0.3,4.5 -0.6,6.5 -0.2,2.1 -0.6,4 -1,5.9 -0.4,1.9 -0.9,3.8 -1.4,5.6 -0.6,2 -1.5,3.1 -2.6,3.5 -1.1,0.4 -2.3,0.2 -3.5,-0.5 -1,-0.6 -1.6,-1.4 -1.7,-2.2 -0.2,-0.8 0,-1.8 0.6,-3.1 1,-2.4 1.7,-5.6 2.3,-9.3 0.5,-3.8 0.8,-8.5 0.8,-14.2 l 0,-19.9 c 0,-2.6 0.5,-4.3 1.5,-5.3 1,-0.9 2.7,-1.4 5,-1.4 l 18.1,0 c -0.4,-1.4 -0.5,-2.5 -0.1,-3.3 0.3,-0.7 0.9,-1.4 1.9,-1.9 0.5,-0.3 1,-0.5 1.5,-0.6 0.5,0 1.1,0 1.6,0 0.5,0.2 1,0.4 1.4,0.7 0.4,0.2 0.7,0.6 1,1.1 0.1,0.3 0.3,0.8 0.6,1.6 0.3,0.7 0.5,1.5 0.8,2.4 l 20.1,0 c 1.1,0 2.1,0.2 2.7,0.6 0.6,0.3 0.9,1.2 0.9,2.6 z m -10,14.9 0,2.6 c 0,1.4 -0.1,2.6 -0.3,3.4 -0.2,0.8 -0.5,1.5 -1,1.9 -0.4,0.4 -1.1,0.7 -1.9,0.8 -0.9,0.2 -2,0.2 -3.4,0.2 l -18,0 c -1.3,0 -2.4,-0.1 -3.3,-0.2 -0.9,-0.2 -1.6,-0.4 -2.1,-0.9 -0.5,-0.4 -0.9,-1 -1.1,-1.8 -0.1,-0.8 -0.2,-2 -0.2,-3.4 l 0,-2.6 -4.3,0 c -1.3,0 -2.1,-0.3 -2.4,-1 -0.3,-0.7 -0.5,-1.4 -0.5,-2.2 0,-0.7 0.2,-1.4 0.7,-1.9 0.4,-0.6 1.2,-0.8 2.3,-0.8 l 4.2,0 c 0,-2.1 0.3,-2.9 0.9,-3.3 0.6,-0.5 1.5,-0.7 2.8,-0.7 1.3,0 2.3,0.2 2.8,0.7 0.5,0.4 0.8,1.2 0.8,2.3 l 16.7,1 c 0,-2.9 1.2,-4 3.6,-4 2.4,0 3.7,1.1 3.7,3.1 l 6.2,0.9 c 1,0 1.8,0.2 2.3,0.6 0.5,0.4 0.7,1.2 0.7,2.3 0,1.2 -0.2,2 -0.7,2.4 -0.5,0.4 -1.3,0.6 -2.3,0.6 l -6.2,0 z m -24.9,17.6 c 1.5,1.7 3.2,3.2 5,4.6 1.7,1.4 3.6,2.6 5.4,3.5 1.9,-0.9 3.6,-2 5.2,-3.1 1.6,-1.1 3,-2.3 4.3,-3.6 0.6,-0.5 0.7,-0.8 0.4,-1.1 -0.2,-0.2 -0.8,-0.3 -1.7,-0.3 l -18.6,0 z m 16.2,-14.5 c 0.5,0 0.9,-0.1 1.1,-0.3 0.2,-0.2 0.3,-0.6 0.3,-1 l 0,-1.8 -16.7,0 0,2.1 c 0,0.7 0.4,1 1.4,1 l 13.9,0 z"
       id="shape33"
       inkscape:connector-curvature="0"
       style="fill:#3498db;stroke:none" />
    <g
       id="switch.plug_158d00011c85e2"
       transform="matrix(0.3315952,-0.17965989,-2.5087701e-4,0.40205109,1758.2467,793.62344)"
       inkscape:label="#g3565">
      <polyline
         id="polyline3567"
         points="328.633,0 127.188,0 127.188,455.821 328.633,455.821 328.633,0  "
         style="fill:#f7b239" />
      <polyline
         id="polyline3569"
         points="306.501,22.14 306.501,433.68 149.321,433.68 149.321,22.14 306.501,22.14  "
         style="fill:#81bbea" />
      <polyline
         id="polyline3571"
         points="306.501,22.14 283.291,22.14 149.321,156.121 149.321,373.11 306.501,215.931    306.501,22.14  "
         style="fill:#acd0ed" />
      <polyline
         id="polyline3573"
         points="306.501,338.38 211.201,433.68 306.501,433.68 306.501,338.38  "
         style="fill:#acd0ed" />
      <polygon
         id="polygon3575"
         points="149.321,22.14 149.321,30.807 297.835,30.807 297.835,433.68 306.501,433.68 306.501,22.14 "
         style="fill:#75b0d8" />
    </g>
    <text
       xml:space="preserve"
       style="font-style:normal;font-weight:normal;line-height:0%;font-family:sans-serif;text-align:center;letter-spacing:0px;word-spacing:0px;text-anchor:middle;fill:#ffffff;fill-opacity:1;stroke:none;stroke-width:1px;stroke-linecap:butt;stroke-linejoin:miter;stroke-opacity:1"
       x="156.3374"
       y="720.07239"
       id="sensor.coconut_moisture"
       transform="scale(0.96320322,1.0382025)"
       inkscape:label="#text3617"><tspan
         sodipodi:role="line"
         x="156.3374"
         y="720.07239"
         id="tspan3619"
         style="font-size:64.89591217px;line-height:1.25"><tspan
           x="156.3374"
           y="720.07239"
           id="tspan3621">water</tspan></tspan></text>
    <text
       xml:space="preserve"
       style="font-style:normal;font-weight:normal;line-height:0%;font-family:sans-serif;text-align:center;letter-spacing:0px;word-spacing:0px;text-anchor:middle;fill:#ffffff;fill-opacity:1;stroke:none;stroke-width:1px;stroke-linecap:butt;stroke-linejoin:miter;stroke-opacity:1"
       x="551.07703"
       y="718.00262"
       id="sensor.coconut_conductivity"
       transform="scale(0.95953607,1.0421703)"
       inkscape:label="#text3623"><tspan
         sodipodi:role="line"
         x="551.07703"
         y="718.00262"
         id="tspan3625"
         style="font-size:68.48854065px;line-height:1.25"><tspan
           x="551.07703"
           y="718.00262"
           id="tspan3627">soil</tspan></tspan></text>
  </g>
  <text
     xml:space="preserve"
     style="font-style:normal;font-weight:normal;line-height:0%;font-family:sans-serif;text-align:center;letter-spacing:0px;word-spacing:0px;text-anchor:middle;fill:#ffffff;fill-opacity:1;stroke:none;stroke-width:1px;stroke-linecap:butt;stroke-linejoin:miter;stroke-opacity:1"
     x="198.93776"
     y="486.68097"
     id="sensor.temperature_158d00010e50d7"
     transform="scale(0.93625551,1.0680845)"
     inkscape:label="#text3434"><tspan
       sodipodi:role="line"
       x="198.93776"
       y="486.68097"
       id="tspan3436"
       style="font-size:65.04927063px;line-height:1.25"><tspan
         x="198.93776"
         y="486.68097"
         id="tspan3438">Tem</tspan></tspan></text>
  <flowRoot
     xml:space="preserve"
     id="flowRoot3440"
     style="font-style:normal;font-variant:normal;font-weight:normal;font-stretch:normal;line-height:0.01%;font-family:'PingFang SC';-inkscape-font-specification:'PingFang SC';text-align:center;letter-spacing:0px;word-spacing:0px;text-anchor:middle;fill:#000000;fill-opacity:1;stroke:none;stroke-width:1px;stroke-linecap:butt;stroke-linejoin:miter;stroke-opacity:1"><flowRegion
       id="flowRegion3442"><rect
         id="rect3444"
         width="162.00729"
         height="77.48175"
         x="441.99817"
         y="461.90692"
         style="font-style:normal;font-variant:normal;font-weight:normal;font-stretch:normal;font-family:'PingFang SC';-inkscape-font-specification:'PingFang SC'" /></flowRegion><flowPara
       id="flowPara3446"
       style="font-size:60px;line-height:1.25"> </flowPara></flowRoot>  <flowRoot
     xml:space="preserve"
     id="flowRoot3448"
     style="font-style:normal;font-variant:normal;font-weight:normal;font-stretch:normal;line-height:0.01%;font-family:'PingFang SC';-inkscape-font-specification:'PingFang SC';text-align:center;letter-spacing:0px;word-spacing:0px;text-anchor:middle;fill:#000000;fill-opacity:1;stroke:none;stroke-width:1px;stroke-linecap:butt;stroke-linejoin:miter;stroke-opacity:1"><flowRegion
       id="flowRegion3450"><rect
         id="rect3452"
         width="154.9635"
         height="81.003647"
         x="445.52008"
         y="463.66788"
         style="font-style:normal;font-variant:normal;font-weight:normal;font-stretch:normal;font-family:'PingFang SC';-inkscape-font-specification:'PingFang SC'" /></flowRegion><flowPara
       id="flowPara3454"
       style="font-size:60px;line-height:1.25"> </flowPara></flowRoot>  <text
     xml:space="preserve"
     style="font-style:normal;font-weight:normal;line-height:0%;font-family:sans-serif;text-align:center;letter-spacing:0px;word-spacing:0px;text-anchor:middle;fill:#000000;fill-opacity:1;stroke:none;stroke-width:1px;stroke-linecap:butt;stroke-linejoin:miter;stroke-opacity:1"
     x="493.0657"
     y="502.40875"
     id="text3456"><tspan
       sodipodi:role="line"
       id="tspan3458"
       x="502.61649"
       y="502.40875"
       style="font-size:60px;line-height:1.25"> </tspan></text>
  <flowRoot
     xml:space="preserve"
     id="flowRoot3460"
     style="font-style:normal;font-variant:normal;font-weight:normal;font-stretch:normal;line-height:0.01%;font-family:'PingFang SC';-inkscape-font-specification:'PingFang SC';text-align:center;letter-spacing:0px;word-spacing:0px;text-anchor:middle;fill:#000000;fill-opacity:1;stroke:none;stroke-width:1px;stroke-linecap:butt;stroke-linejoin:miter;stroke-opacity:1"><flowRegion
       id="flowRegion3462"><rect
         id="rect3464"
         width="151.4416"
         height="95.09124"
         x="449.04196"
         y="458.38504"
         style="font-style:normal;font-variant:normal;font-weight:normal;font-stretch:normal;font-family:'PingFang SC';-inkscape-font-specification:'PingFang SC'" /></flowRegion><flowPara
       id="flowPara3466"
       style="font-size:60px;line-height:1.25"> </flowPara></flowRoot>  <text
     xml:space="preserve"
     style="font-style:normal;font-weight:normal;line-height:0%;font-family:sans-serif;text-align:center;letter-spacing:0px;word-spacing:0px;text-anchor:middle;fill:#ffffff;fill-opacity:1;stroke:none;stroke-width:1px;stroke-linecap:butt;stroke-linejoin:miter;stroke-opacity:1"
     x="530.48785"
     y="492.94461"
     id="sensor.humidity_158d00010e50d7"
     transform="scale(0.95190473,1.0505253)"
     inkscape:label="#text3476"><tspan
       sodipodi:role="line"
       x="530.48785"
       y="492.94461"
       id="tspan3478"
       style="font-size:63.88098526px;line-height:1.25"><tspan
         x="530.48785"
         y="492.94461"
         id="tspan3480">Hum</tspan></tspan></text>
  <g
     id="light.gateway_light_f0b429b43088"
     transform="matrix(2.0917883,0,0,1.963538,989.69079,887.97083)"
     inkscape:label="#g3586">
    <path
       id="path3528"
       d="m 26.5,9 c -8.837,0 -16,7.164 -16,16 0,7.089 4.615,13.091 11,15.192 l 0,9.808 2,0 0,3 6,0 0,-3 2,0 0,-9.808 c 6.385,-2.101 11,-8.103 11,-15.192 0,-8.836 -7.163,-16 -16,-16 z"
       style="fill:#efce4a"
       inkscape:connector-curvature="0" />
    <g
       id="g3530">
      <path
         id="path3532"
         d="m 26.5,0 c -0.553,0 -1,0.447 -1,1 l 0,4 c 0,0.553 0.447,1 1,1 0.553,0 1,-0.447 1,-1 l 0,-4 c 0,-0.553 -0.447,-1 -1,-1 z"
         style="fill:#efce4a"
         inkscape:connector-curvature="0" />
      <path
         id="path3534"
         d="m 50.5,24 -4,0 c -0.553,0 -1,0.447 -1,1 0,0.553 0.447,1 1,1 l 4,0 c 0.553,0 1,-0.447 1,-1 0,-0.553 -0.447,-1 -1,-1 z"
         style="fill:#efce4a"
         inkscape:connector-curvature="0" />
      <path
         id="path3536"
         d="m 6.5,24 -4,0 c -0.553,0 -1,0.447 -1,1 0,0.553 0.447,1 1,1 l 4,0 c 0.553,0 1,-0.447 1,-1 0,-0.553 -0.447,-1 -1,-1 z"
         style="fill:#efce4a"
         inkscape:connector-curvature="0" />
      <path
         id="path3538"
         d="m 42.764,7.322 -2.828,2.828 c -0.391,0.391 -0.391,1.023 0,1.414 0.195,0.195 0.451,0.293 0.707,0.293 0.256,0 0.512,-0.098 0.707,-0.293 l 2.828,-2.828 c 0.391,-0.391 0.391,-1.023 0,-1.414 -0.391,-0.391 -1.024,-0.39 -1.414,0 z"
         style="fill:#efce4a"
         inkscape:connector-curvature="0" />
      <path
         id="path3540"
         d="m 11.65,38.436 -2.828,2.828 c -0.391,0.391 -0.391,1.023 0,1.414 0.195,0.195 0.451,0.293 0.707,0.293 0.256,0 0.512,-0.098 0.707,-0.293 l 2.828,-2.828 c 0.391,-0.391 0.391,-1.023 0,-1.414 -0.391,-0.391 -1.023,-0.391 -1.414,0 z"
         style="fill:#efce4a"
         inkscape:connector-curvature="0" />
      <path
         id="path3542"
         d="m 41.35,38.436 c -0.391,-0.391 -1.023,-0.391 -1.414,0 -0.391,0.391 -0.391,1.023 0,1.414 l 2.828,2.828 c 0.195,0.195 0.451,0.293 0.707,0.293 0.256,0 0.512,-0.098 0.707,-0.293 0.391,-0.391 0.391,-1.023 0,-1.414 L 41.35,38.436 Z"
         style="fill:#efce4a"
         inkscape:connector-curvature="0" />
      <path
         id="path3544"
         d="m 10.236,7.322 c -0.391,-0.391 -1.023,-0.391 -1.414,0 -0.391,0.391 -0.391,1.023 0,1.414 l 2.828,2.828 c 0.195,0.195 0.451,0.293 0.707,0.293 0.256,0 0.512,-0.098 0.707,-0.293 0.391,-0.391 0.391,-1.023 0,-1.414 L 10.236,7.322 Z"
         style="fill:#efce4a"
         inkscape:connector-curvature="0" />
    </g>
    <path
       id="path3546"
       d="m 15.5,26 c -0.553,0 -1,-0.447 -1,-1 0,-6.617 5.383,-12 12,-12 0.553,0 1,0.447 1,1 0,0.553 -0.447,1 -1,1 -5.514,0 -10,4.486 -10,10 0,0.553 -0.447,1 -1,1 z"
       style="fill:#f7e6a1"
       inkscape:connector-curvature="0" />
    <polygon
       id="polygon3548"
       points="31.5,43 21.5,43 21.5,50 23.5,50 23.5,53 29.5,53 29.5,50 31.5,50 "
       style="fill:#556080" />
    <g
       id="g3550" />
    <g
       id="g3552" />
    <g
       id="g3554" />
    <g
       id="g3556" />
    <g
       id="g3558" />
    <g
       id="g3560" />
    <g
       id="g3562" />
    <g
       id="g3564" />
    <g
       id="g3566" />
    <g
       id="g3568" />
    <g
       id="g3570" />
    <g
       id="g3572" />
    <g
       id="g3574" />
    <g
       id="g3576" />
    <g
       id="g3578" />
  </g>
  <g
     id="g3869"
     transform="matrix(0.38713913,0,0,0.312129,252.20145,639.10009)">
    <path
       id="path3791"
       d="m 335.683,305.239 c -4.326,0 -7.833,-3.507 -7.833,-7.833 l 0,-150.512 c 0,-4.326 3.507,-7.833 7.833,-7.833 4.326,0 7.833,3.507 7.833,7.833 l 0,150.512 c 0,4.325 -3.507,7.833 -7.833,7.833 z"
       style="fill:#66bb00"
       inkscape:connector-curvature="0" />
    <path
       id="path3793"
       d="m 321.696,146.617 c -23.83,57.529 -77.31,4.049 -19.78,-19.78 -57.529,23.83 -57.529,-51.803 0,-27.974 -57.529,-23.83 -4.049,-77.31 19.78,-19.78 -23.83,-57.529 51.803,-57.529 27.974,0 23.83,-57.529 77.31,-4.049 19.78,19.78 57.529,-23.83 57.529,51.803 0,27.974 57.529,23.83 4.049,77.31 -19.78,19.78 23.828,57.529 -51.803,57.529 -27.974,0 z"
       style="fill:#ff3f62"
       inkscape:connector-curvature="0" />
    <path
       id="path3795"
       d="m 176.317,305.239 c -4.326,0 -7.833,-3.507 -7.833,-7.833 l 0,-150.512 c 0,-4.326 3.507,-7.833 7.833,-7.833 4.326,0 7.833,3.507 7.833,7.833 l 0,150.512 c 0,4.325 -3.507,7.833 -7.833,7.833 z"
       style="fill:#66bb00"
       inkscape:connector-curvature="0" />
    <path
       id="path3797"
       d="m 162.331,146.617 c -23.83,57.529 -77.31,4.049 -19.78,-19.78 -57.529,23.83 -57.529,-51.803 0,-27.974 -57.529,-23.83 -4.049,-77.31 19.78,-19.78 -23.83,-57.529 51.803,-57.529 27.974,0 23.83,-57.529 77.31,-4.049 19.78,19.78 57.529,-23.83 57.529,51.803 0,27.974 57.529,23.83 4.049,77.31 -19.78,19.78 23.829,57.529 -51.804,57.529 -27.974,0 z"
       style="fill:#ff3f62"
       inkscape:connector-curvature="0" />
    <g
       id="g3799">
      <circle
         id="circle3801"
         r="19.582001"
         cy="112.852"
         cx="176.321"
         style="fill:#ffda44" />
      <circle
         id="circle3803"
         r="19.582001"
         cy="112.852"
         cx="335.67999"
         style="fill:#ffda44" />
    </g>
    <path
       id="path3805"
       d="m 256,269.304 c -4.326,0 -7.833,-3.507 -7.833,-7.833 l 0,-150.512 c 0,-4.326 3.507,-7.833 7.833,-7.833 4.326,0 7.833,3.507 7.833,7.833 l 0,150.512 c 0,4.326 -3.506,7.833 -7.833,7.833 z"
       style="fill:#77dd00"
       inkscape:connector-curvature="0" />
    <path
       id="path3807"
       d="m 256,103.126 c -4.326,0 -7.833,3.507 -7.833,7.833 l 0,73.565 c 2.568,0.419 5.186,0.639 7.833,0.639 2.647,0 5.265,-0.22 7.833,-0.639 l 0,-73.565 c 0,-4.326 -3.506,-7.833 -7.833,-7.833 z"
       style="fill:#66bb00"
       inkscape:connector-curvature="0" />
    <path
       id="path3809"
       d="m 242.013,110.682 c -23.83,57.529 -77.31,4.049 -19.78,-19.78 -57.529,23.83 -57.529,-51.803 0,-27.974 -57.529,-23.83 -4.049,-77.31 19.78,-19.78 -23.83,-57.529 51.803,-57.529 27.974,0 23.83,-57.529 77.31,-4.049 19.78,19.78 57.529,-23.83 57.529,51.803 0,27.974 57.529,23.83 4.049,77.31 -19.78,19.78 23.829,57.529 -51.803,57.529 -27.974,0 z"
       style="fill:#f490c0"
       inkscape:connector-curvature="0" />
    <circle
       id="circle3811"
       r="19.582001"
       cy="76.913002"
       cx="256.00101"
       style="fill:#ffe477" />
    <path
       id="path3813"
       d="m 133.241,278.285 25.512,218.25 c 1.02,8.815 8.485,15.466 17.358,15.466 l 159.745,0 c 8.875,0 16.339,-6.651 17.358,-15.466 l 25.543,-218.25 -245.516,0 z"
       style="fill:#ff9478"
       inkscape:connector-curvature="0" />
    <g
       id="g3815">
      <path
         id="path3817"
         d="m 378.758,278.285 -245.517,0 25.512,218.25 c 1.02,8.815 8.485,15.466 17.358,15.466 l 62.666,0 c -8.875,0 -16.339,-6.651 -17.358,-15.466 l -18.656,-159.601 169.131,0 6.864,-58.649 z"
         style="fill:#ff6243"
         inkscape:connector-curvature="0" />
      <path
         id="path3819"
         d="m 334.975,390.751 c -0.304,0 -0.611,-0.018 -0.92,-0.053 -4.297,-0.502 -7.373,-4.394 -6.869,-8.691 l 1.887,-16.121 c 0.502,-4.297 4.392,-7.373 8.691,-6.869 4.297,0.502 7.373,4.394 6.869,8.691 l -1.887,16.121 c -0.467,3.987 -3.852,6.922 -7.771,6.922 z"
         style="fill:#ff6243"
         inkscape:connector-curvature="0" />
      <path
         id="path3821"
         d="m 323.536,488.502 c -0.304,0 -0.611,-0.018 -0.92,-0.053 -4.297,-0.502 -7.373,-4.394 -6.87,-8.691 l 7.785,-66.519 c 0.502,-4.297 4.394,-7.377 8.691,-6.87 4.297,0.502 7.373,4.394 6.87,8.691 l -7.785,66.519 c -0.467,3.987 -3.853,6.923 -7.771,6.923 z"
         style="fill:#ff6243"
         inkscape:connector-curvature="0" />
    </g>
    <path
       id="path3823"
       d="m 390.188,305.601 -268.376,0 c -10.34,0 -18.8,-8.46 -18.8,-18.8 l 0,-50.661 c 0,-10.34 8.46,-18.8 18.8,-18.8 l 268.376,0 c 10.34,0 18.8,8.46 18.8,18.8 l 0,50.661 c 0,10.34 -8.46,18.8 -18.8,18.8 z"
       style="fill:#ffeb99"
       inkscape:connector-curvature="0" />
    <g
       id="g3825">
      <path
         id="path3827"
         d="m 161.995,286.801 0,-50.661 c 0,-10.34 8.46,-18.8 18.8,-18.8 l -58.982,0 c -10.34,0 -18.8,8.46 -18.8,18.8 l 0,50.661 c 0,10.34 8.46,18.8 18.8,18.8 l 58.982,0 c -10.34,0 -18.8,-8.46 -18.8,-18.8 z"
         style="fill:#ffda44"
         inkscape:connector-curvature="0" />
      <path
         id="path3829"
         d="m 318.666,279.386 -106.532,0 c -4.326,0 -7.833,-3.507 -7.833,-7.833 0,-4.326 3.507,-7.833 7.833,-7.833 l 106.532,0 c 4.326,0 7.833,3.507 7.833,7.833 0,4.326 -3.507,7.833 -7.833,7.833 z"
         style="fill:#ffda44"
         inkscape:connector-curvature="0" />
      <path
         id="path3831"
         d="m 371.584,279.386 -24.37,0 c -4.326,0 -7.833,-3.507 -7.833,-7.833 0,-4.326 3.507,-7.833 7.833,-7.833 l 24.37,0 c 4.326,0 7.833,3.507 7.833,7.833 0,4.326 -3.507,7.833 -7.833,7.833 z"
         style="fill:#ffda44"
         inkscape:connector-curvature="0" />
    </g>
    <g
       id="g3833" />
    <g
       id="g3835" />
    <g
       id="g3837" />
    <g
       id="g3839" />
    <g
       id="g3841" />
    <g
       id="g3843" />
    <g
       id="g3845" />
    <g
       id="g3847" />
    <g
       id="g3849" />
    <g
       id="g3851" />
    <g
       id="g3853" />
    <g
       id="g3855" />
    <g
       id="g3857" />
    <g
       id="g3859" />
    <g
       id="g3861" />
  </g>
  <g
     id="g4036"
     transform="matrix(0.00537254,-0.45677247,0.42574808,0.00500763,691.64146,432.82904)">
    <path
       id="path3982"
       d="m 496,309.6 c 0,27.2 -6.4,48.8 -32.8,48.8 l -430.4,0 C 5.6,358.4 0,336.8 0,309.6 L 0,186.4 c 0,-27.2 21.6,-48.8 48.8,-48.8 l 398.4,0 c 27.2,0 48.8,21.6 48.8,48.8 l 0,123.2 0,0 z"
       style="fill:#b3dce0"
       inkscape:connector-curvature="0" />
    <g
       id="g3984">
      <path
         id="path3986"
         d="m 0,186.4 c 0,-27.2 21.6,-48.8 48.8,-48.8 l 398.4,0 c 27.2,0 48.8,21.6 48.8,48.8"
         style="fill:#c1e3e5"
         inkscape:connector-curvature="0" />
    </g>
    <path
       id="path3988"
       d="m 464.8,308.8 c 0,5.6 -4,9.6 -9.6,9.6 l -414.4,0 c -5.6,0 -9.6,-4 -9.6,-9.6 l 0,0 c 0,-5.6 4,-9.6 9.6,-9.6 l 414.4,0 c 5.6,0 9.6,4 9.6,9.6 l 0,0 z"
       style="fill:#9ecacc"
       inkscape:connector-curvature="0" />
    <path
       id="path3990"
       d="m 31.2,308.8 0,0 c 0,-5.6 4,-9.6 9.6,-9.6 l 414.4,0 c 5.6,0 9.6,4 9.6,9.6 l 0,0"
       style="fill:#7eaaaa"
       inkscape:connector-curvature="0" />
    <path
       id="path3992"
       d="m 464.8,336 c 0,5.6 -4,9.6 -9.6,9.6 l -414.4,0 c -5.6,0 -9.6,-4 -9.6,-9.6 l 0,0 c 0,-5.6 4,-9.6 9.6,-9.6 l 414.4,0 c 5.6,0 9.6,4 9.6,9.6 l 0,0 z"
       style="fill:#9ecacc"
       inkscape:connector-curvature="0" />
    <path
       id="path3994"
       d="m 31.2,336 0,0 c 0,-5.6 4,-9.6 9.6,-9.6 l 414.4,0 c 5.6,0 9.6,4 9.6,9.6 l 0,0"
       style="fill:#7eaaaa"
       inkscape:connector-curvature="0" />
    <path
       id="path3996"
       d="m 145.6,267.2 c 0,2.4 -2.4,4.8 -4.8,4.8 l -101.6,0 c -2.4,0 -4.8,-2.4 -4.8,-4.8 l 0,-33.6 c 0,-2.4 2.4,-4.8 4.8,-4.8 l 102.4,0 c 2.4,0 4.8,2.4 4.8,4.8 l 0,33.6 -0.8,0 z"
       style="fill:#46bc5c"
       inkscape:connector-curvature="0" />
    <path
       id="path3998"
       d="m 140.8,229.6 c 2.4,0 4.8,2.4 4.8,4.8 l 0,33.6 c 0,2.4 -2.4,4.8 -4.8,4.8 l -101.6,0 c -2.4,0 -4.8,-2.4 -4.8,-4.8"
       style="fill:#2fa53f"
       inkscape:connector-curvature="0" />
    <g
       id="g4000" />
    <g
       id="g4002" />
    <g
       id="g4004" />
    <g
       id="g4006" />
    <g
       id="g4008" />
    <g
       id="g4010" />
    <g
       id="g4012" />
    <g
       id="g4014" />
    <g
       id="g4016" />
    <g
       id="g4018" />
    <g
       id="g4020" />
    <g
       id="g4022" />
    <g
       id="g4024" />
    <g
       id="g4026" />
    <g
       id="g4028" />
  </g>
  <g
     id="binary_sensor.motion_sensor_158d000155b4be"
     transform="matrix(0.18828496,-0.0032275,0.00377122,0.22000409,882.43503,256.2753)"
     inkscape:label="#g4183">
    <path
       id="path4133"
       d="m 288.495,305.475 -205.948,0 0,31.347 205.948,0 c 22.621,0 41.025,18.404 41.025,41.025 0,20.102 -16.354,36.455 -36.455,36.455 -7.592,0 -14.574,-2.643 -20.09,-7.048 8.475,-5.014 14.162,-14.242 14.162,-24.803 0,-15.908 -12.896,-28.803 -28.804,-28.803 -15.773,0 -28.577,12.679 -28.793,28.401 l -0.076,0 c 0,35.07 28.531,63.601 63.601,63.601 37.386,0 67.802,-30.416 67.802,-67.802 -0.001,-39.907 -32.467,-72.373 -72.372,-72.373 z"
       style="fill:#b7e4f8"
       inkscape:connector-curvature="0" />
    <path
       id="path4135"
       d="m 409.773,66.351 c -46.1,0 -84.652,32.921 -93.392,76.488 -1.214,4.603 -1.866,9.434 -1.866,14.419 0,0.579 0.183,4.346 0.183,4.346 2.221,29.129 26.543,52.079 56.241,52.079 31.162,0 56.424,-25.262 56.424,-56.424 0,-26.255 -17.933,-48.319 -42.217,-54.618 7.583,-3.179 15.902,-4.941 24.626,-4.941 39.084,0 70.88,31.797 70.88,70.88 0,43.267 -35.201,78.467 -78.467,78.467 l -402.185,0 0,31.347 402.186,0 C 462.738,278.393 512,229.13 512,168.578 512,112.21 466.141,66.351 409.773,66.351 Z"
       style="fill:#93d6f4"
       inkscape:connector-curvature="0" />
    <path
       id="path4137"
       d="m 292.757,159.13 c 0,-31.53 -25.651,-57.181 -57.181,-57.181 -29.119,0 -52.896,23.242 -53.793,52.146 -0.017,0.357 -0.023,1.689 -0.023,1.689 0.331,12.013 10.15,21.655 22.243,21.655 12.302,0 22.274,-9.973 22.274,-22.274 0,-6.042 -2.415,-11.514 -6.32,-15.526 4.049,-3.918 9.552,-6.344 15.619,-6.344 14.245,0 25.834,11.589 25.834,25.834 0,16.251 -13.221,29.473 -29.472,29.473 l -149.391,0 0,31.347 149.391,0 c 33.535,0.002 60.819,-27.282 60.819,-60.819 z"
       style="fill:#b7e4f8"
       inkscape:connector-curvature="0" />
    <g
       id="g4139">
      <path
         id="path4141"
         d="m 256,143.339 c 3.387,4.37 5.41,9.848 5.41,15.792 0,6.323 -2.008,12.182 -5.41,16.987 l 0,38.86 c 21.6,-9.343 36.757,-30.855 36.757,-55.846 0,-24.335 -15.287,-45.156 -36.757,-53.396 l 0,37.603 0,0 z"
         style="fill:#93d6f4"
         inkscape:connector-curvature="0" />
      <path
         id="path4143"
         d="m 288.495,305.475 -32.495,0 0,31.347 32.495,0 c 22.621,0 41.025,18.404 41.025,41.025 0,20.102 -16.354,36.455 -36.455,36.455 -7.592,0 -14.574,-2.643 -20.09,-7.048 8.475,-5.014 14.162,-14.242 14.162,-24.803 0,-15.908 -12.896,-28.803 -28.804,-28.803 -0.786,0 -1.562,0.04 -2.333,0.102 l 0,79.935 c 10.445,7.518 23.241,11.965 37.064,11.965 37.386,0 67.802,-30.416 67.802,-67.802 0,-39.907 -32.466,-72.373 -72.371,-72.373 z"
         style="fill:#93d6f4"
         inkscape:connector-curvature="0" />
    </g>
    <path
       id="path4145"
       d="m 409.773,66.351 c -46.1,0 -84.652,32.921 -93.392,76.488 -1.214,4.603 -1.866,9.434 -1.866,14.419 0,0.579 0.183,4.346 0.183,4.346 2.221,29.129 26.543,52.079 56.241,52.079 31.162,0 56.424,-25.262 56.424,-56.424 0,-26.255 -17.933,-48.319 -42.217,-54.618 7.583,-3.179 15.902,-4.941 24.626,-4.941 39.084,0 70.88,31.797 70.88,70.88 0,43.267 -35.201,78.467 -78.467,78.467 l -146.185,0 0,31.347 146.186,0 C 462.738,278.393 512,229.13 512,168.578 512,112.21 466.141,66.351 409.773,66.351 Z"
       style="fill:#4bbaed"
       inkscape:connector-curvature="0" />
    <g
       id="g4147" />
    <g
       id="g4149" />
    <g
       id="g4151" />
    <g
       id="g4153" />
    <g
       id="g4155" />
    <g
       id="g4157" />
    <g
       id="g4159" />
    <g
       id="g4161" />
    <g
       id="g4163" />
    <g
       id="g4165" />
    <g
       id="g4167" />
    <g
       id="g4169" />
    <g
       id="g4171" />
    <g
       id="g4173" />
    <g
       id="g4175" />
  </g>
  <g
     id="media_player.playstation_4"
     transform="matrix(0.70661909,0,0,0.780526,1354.3146,59.183034)"
     inkscape:label="#g3633">
    <g
       id="g3593">
      <path
         id="path3595"
         d="m 8.44,33.65 6.845,0 0,70.884 -13.921,-0.022 7.076,-6.287 0,-64.575 z m 0,-2.454 6.845,0.009 0,-31.205 -6.845,0 0,31.196 z m 32.04,63.978 c -0.187,1.701 -0.271,3.352 -0.251,4.906 0.019,1.37 0.195,2.887 1.02,4.443 l -23.873,0.011 0,-70.884 6.161,0.5 41.271,8.49 0,25.148 c -0.189,0.129 -0.377,0.263 -0.547,0.416 l -2.904,0 c -0.404,-0.437 -0.917,-0.786 -1.512,-1.011 -2.941,-1.115 -6.021,-1.069 -8.923,0.117 -0.463,0.188 -0.886,0.431 -1.243,0.709 -0.313,0.242 -0.586,0.525 -0.809,0.838 -0.277,0.227 -0.572,0.52 -0.83,0.896 -0.438,0.638 -0.861,1.282 -1.285,1.929 l -0.502,0.762 c -1.059,1.601 -1.641,3.289 -2.029,4.582 -0.805,2.675 -1.527,5.595 -2.21,8.927 -0.556,2.712 -1.174,5.93 -1.534,9.221 z M 20.72,88.286 c 0,0.041 0.019,0.056 0.063,0.067 0.234,0.063 0.47,0.131 0.705,0.195 0.07,0.02 0.141,0.039 0.211,0.064 0.196,0.072 0.381,0.236 0.377,0.457 -0.007,0.644 -0.002,1.289 -0.002,1.935 0,0.069 10e-4,0.14 0.01,0.21 0.027,0.223 0.133,0.426 0.365,0.598 0.161,0.119 0.336,0.184 0.518,0.222 0.381,0.083 0.667,-0.097 0.667,-0.418 0,-0.978 0,-1.954 0,-2.931 0,-0.02 0,-0.039 0,-0.065 -0.082,-0.022 -0.153,-0.039 -0.226,-0.063 -0.059,-0.02 -0.072,-0.004 -0.072,0.043 0.002,0.522 0.002,1.045 0.002,1.568 0,0.366 0,0.732 0,1.098 -0.001,0.182 -0.104,0.271 -0.311,0.248 -0.088,-0.009 -0.184,-0.033 -0.273,-0.066 -0.252,-0.1 -0.365,-0.247 -0.365,-0.461 0,-0.696 -0.006,-1.396 0.002,-2.092 0.005,-0.348 -0.308,-0.678 -0.682,-0.801 -0.311,-0.102 -0.622,-0.18 -0.933,-0.27 -0.04,-0.012 -0.056,-0.004 -0.055,0.031 0.002,0.145 0.003,0.288 -0.001,0.431 z m 0.002,3.952 c 10e-4,0.146 0.035,0.297 0.133,0.447 0.149,0.23 0.371,0.371 0.631,0.444 0.447,0.128 0.894,0.249 1.34,0.374 0.057,0.018 0.113,0.036 0.17,0.059 0.168,0.065 0.291,0.188 0.326,0.324 0.012,0.045 0.015,0.09 0.015,0.133 0.001,0.446 0.001,0.895 0.001,1.342 0,0.011 -0.005,0.023 10e-4,0.033 0.01,0.017 0.025,0.041 0.04,0.045 0.081,0.026 0.164,0.049 0.255,0.074 0,-0.02 0,-0.029 0,-0.041 0,-0.563 0.005,-1.123 -0.003,-1.688 -0.003,-0.188 -0.102,-0.375 -0.286,-0.541 -0.14,-0.124 -0.299,-0.203 -0.47,-0.25 -0.459,-0.13 -0.92,-0.255 -1.38,-0.386 -0.27,-0.076 -0.468,-0.241 -0.462,-0.514 0.011,-0.464 0.004,-0.933 0.004,-1.398 0,-0.014 -0.002,-0.023 0,-0.035 0.002,-0.03 -0.012,-0.049 -0.051,-0.059 -0.068,-0.018 -0.137,-0.035 -0.206,-0.057 -0.047,-0.016 -0.06,-0.003 -0.059,0.034 0.001,0.557 -0.001,1.108 0.001,1.66 z m 2.912,5.464 C 23.643,97.603 23.597,97.51 23.537,97.412 23.358,97.118 23.179,96.824 23,96.531 c -0.532,-0.875 -1.065,-1.75 -1.598,-2.623 -0.028,-0.045 -0.061,-0.092 -0.099,-0.131 -0.107,-0.11 -0.223,-0.11 -0.254,0 -0.012,0.043 -0.014,0.09 -0.014,0.138 -0.001,0.892 -0.001,1.78 0,2.672 0,0.04 -0.014,0.052 -0.063,0.035 -0.08,-0.024 -0.16,-0.046 -0.245,-0.069 0,0.178 0,0.35 0,0.527 0.082,0.021 0.159,0.047 0.238,0.064 0.054,0.014 0.071,0.033 0.069,0.08 -0.003,0.137 -0.002,0.277 0,0.42 0.001,0.016 0.017,0.047 0.025,0.051 0.094,0.029 0.187,0.054 0.283,0.08 0.002,-0.023 0.004,-0.041 0.004,-0.06 0,-0.133 0.002,-0.266 -0.002,-0.399 0,-0.051 0.014,-0.063 0.075,-0.045 0.63,0.178 1.261,0.354 1.891,0.526 0.062,0.017 0.126,0.027 0.185,0.028 0.097,0.005 0.133,-0.042 0.139,-0.123 z m -2.222,-3.266 c -0.012,-0.019 -0.025,-0.033 -0.038,-0.051 -0.007,0 -0.013,0 -0.019,0 0,0.78 0,1.561 0,2.342 0.018,0.006 0.029,0.01 0.04,0.014 0.542,0.15 1.085,0.302 1.627,0.453 0.067,0.019 0.075,0.007 0.038,-0.055 -0.549,-0.903 -1.099,-1.804 -1.648,-2.703 z m 43.394,-53.783 0,-27.205 L 24.463,0 l -7.087,0 0,31.206 6.394,0.557 41.036,8.89 z m -8.074,40.76 -1.308,-1.429 c -0.125,-0.135 -0.322,-0.135 -0.445,0 l -1.201,1.312 c -0.23,0.202 -0.384,0.532 -0.384,0.83 l 0,2.51 c 0,0.471 0.381,0.854 0.852,0.854 l 1.902,0 c 0.471,0 0.853,-0.383 0.853,-0.854 l 0,-2.51 c 0,-0.246 -0.104,-0.514 -0.271,-0.714 l 0.002,0 z m -2.19,-2.397 -1.431,-1.31 0,0.003 c -0.199,-0.166 -0.467,-0.271 -0.713,-0.271 l -2.511,0 c -0.47,0 -0.851,0.383 -0.851,0.853 l 0,1.903 c 0,0.471 0.381,0.852 0.851,0.852 l 2.511,0 c 0.298,0 0.627,-0.152 0.83,-0.385 l 1.313,-1.201 c 0.136,-0.124 0.136,-0.323 0.001,-0.444 z m 12.982,-0.226 12.955,0 c 0.642,0 1.165,-0.522 1.165,-1.167 l 0,-0.016 0,-6.715 0,-0.035 c 0,-0.644 -0.523,-1.166 -1.164,-1.166 l -12.955,0 c -0.644,0 -1.166,0.522 -1.166,1.166 l 0,0.016 0,6.716 0,0.034 c 0,0.643 0.525,1.167 1.165,1.167 z M 54.979,78.773 c 0.123,0.135 0.32,0.135 0.445,0 l 1.308,-1.43 -0.003,0 C 56.896,77.144 57,76.875 57,76.63 l 0,-2.512 c 0,-0.471 -0.382,-0.852 -0.853,-0.852 l -1.902,0 c -0.471,0 -0.853,0.381 -0.853,0.852 l 0,2.512 c 0,0.297 0.152,0.627 0.385,0.829 l 1.202,1.314 z m 42.265,-1.627 c 1.097,0 1.981,0.889 1.981,1.982 0,1.093 -0.887,1.982 -1.981,1.982 -1.094,0 -1.981,-0.889 -1.981,-1.982 0,-1.093 0.887,-1.982 1.981,-1.982 z m 0,0.663 c -0.715,0 -1.297,0.58 -1.297,1.295 0,0.717 0.582,1.299 1.297,1.299 0.718,0 1.3,-0.582 1.3,-1.299 0,-0.715 -0.582,-1.295 -1.3,-1.295 z m -5.386,-2.266 1.9,0 -0.951,-1.609 -0.949,1.609 z m 2.934,-0.686 c 0,1.097 -0.888,1.982 -1.982,1.982 -1.094,0 -1.982,-0.887 -1.982,-1.982 0,-1.094 0.889,-1.981 1.982,-1.981 1.094,-0.001 1.982,0.888 1.982,1.981 z m -0.603,0.932 -1.382,-2.336 -1.379,2.336 2.761,0 z m 2.003,3.315 c 0,0.582 0.472,1.055 1.052,1.055 0.581,0 1.054,-0.473 1.054,-1.055 0,-0.578 -0.473,-1.051 -1.054,-1.051 -0.58,0 -1.052,0.472 -1.052,1.051 z m -1.4,4.304 c 0,1.095 -0.888,1.982 -1.982,1.982 -1.094,0 -1.982,-0.889 -1.982,-1.982 0,-1.093 0.889,-1.982 1.982,-1.982 1.094,-0.001 1.982,0.886 1.982,1.982 z m -1.705,0 0.93,-0.93 -0.225,-0.227 -0.931,0.93 -0.931,-0.93 -0.226,0.227 0.931,0.93 -0.931,0.93 0.226,0.227 0.931,-0.93 0.931,0.93 0.225,-0.227 -0.93,-0.93 z m 11.022,15.835 c -0.024,1.969 -0.458,3.321 -2.367,4.894 -3.33,2.573 -7.83,0.895 -8.782,-0.513 -0.953,-1.407 -1.765,-3.593 -2.41,-5.491 -0.527,-1.545 -1.056,-3.09 -1.569,-4.64 -0.165,-0.494 -0.577,-0.679 -0.996,-0.863 -0.052,-0.021 -0.151,0.026 -0.21,0.07 -2.297,1.673 -5.205,1.62 -7.443,-0.125 -0.113,-0.089 -0.285,-0.15 -0.43,-0.15 -0.66,0 -2.363,0.003 -4.035,0.005 l 0,0.008 c -0.365,-0.002 -1.051,-0.002 -1.873,-0.004 -0.822,0.002 -1.507,0.002 -1.873,0.004 l 0,-0.008 c -1.672,-0.002 -3.374,-0.005 -4.035,-0.005 -0.145,0 -0.314,0.062 -0.43,0.15 -2.238,1.745 -5.146,1.798 -7.443,0.125 -0.059,-0.044 -0.158,-0.093 -0.209,-0.07 -0.418,0.185 -0.832,0.369 -0.996,0.863 -0.516,1.55 -1.043,3.095 -1.567,4.64 -0.647,1.898 -1.459,4.086 -2.412,5.491 -0.952,1.405 -5.451,3.086 -8.783,0.513 -1.908,-1.57 -2.341,-2.925 -2.367,-4.894 -0.019,-1.493 0.068,-2.995 0.23,-4.479 0.328,-2.992 0.879,-5.953 1.482,-8.902 0.594,-2.9 1.279,-5.781 2.133,-8.619 0.387,-1.284 0.852,-2.533 1.598,-3.661 0.583,-0.881 1.155,-1.769 1.753,-2.64 0.109,-0.158 0.306,-0.271 0.483,-0.369 0.135,-0.074 0.234,-0.129 0.244,-0.307 0.006,-0.096 0.086,-0.207 0.166,-0.269 0.124,-0.097 0.271,-0.175 0.418,-0.233 2.109,-0.863 4.23,-0.898 6.365,-0.09 0.182,0.068 0.284,0.191 0.268,0.381 -0.026,0.293 0.086,0.455 0.384,0.481 0.022,0.002 0.047,0.014 0.067,0.024 0.502,0.26 1.043,0.35 1.603,0.352 l 4.741,0 -0.016,6.71 c 0,0.955 0.775,1.731 1.729,1.731 l 12.953,0 c 0.954,0 1.729,-0.776 1.729,-1.731 l 0,-6.71 4.707,0 c 0.561,-0.002 1.1,-0.092 1.604,-0.352 0.02,-0.012 0.043,-0.022 0.066,-0.024 0.297,-0.026 0.41,-0.188 0.385,-0.481 -0.019,-0.189 0.084,-0.312 0.266,-0.381 2.135,-0.811 4.256,-0.773 6.365,0.09 0.148,0.061 0.294,0.137 0.418,0.233 0.08,0.062 0.16,0.173 0.166,0.269 0.01,0.178 0.109,0.231 0.244,0.307 0.178,0.099 0.375,0.211 0.483,0.369 0.599,0.871 1.171,1.759 1.752,2.64 0.746,1.128 1.212,2.377 1.599,3.661 0.854,2.838 1.539,5.719 2.133,8.619 0.604,2.949 1.154,5.91 1.482,8.902 0.163,1.484 0.251,2.986 0.23,4.479 z M 62.552,75.475 c 0,0.672 0.543,1.217 1.215,1.217 0.672,0 1.217,-0.545 1.217,-1.217 l 0,-2.502 c 0,-0.672 -0.545,-1.217 -1.217,-1.217 -0.672,0 -1.215,0.544 -1.215,1.217 l 0,2.502 z m -0.502,3.772 c 0,-3.763 -3.052,-6.813 -6.813,-6.813 -3.762,0 -6.812,3.051 -6.812,6.813 0,3.762 3.05,6.812 6.812,6.812 3.761,0 6.813,-3.051 6.813,-6.812 z m 5.477,10.067 c 0,-1.955 -1.585,-3.539 -3.54,-3.539 -1.954,0 -3.54,1.584 -3.54,3.539 0,1.955 1.586,3.539 3.54,3.539 1.955,0.001 3.54,-1.583 3.54,-3.539 z m 6.252,0.075 c 0.067,0 0.138,0 0.205,-0.007 0.209,-0.024 0.381,-0.11 0.485,-0.302 0.072,-0.133 0.086,-0.279 0.076,-0.43 -0.023,-0.314 -0.279,-0.553 -0.594,-0.553 -0.959,0 -1.918,0 -2.877,0 -0.02,0 -0.039,0 -0.064,0 0,0.069 0.004,0.129 -0.002,0.188 -0.002,0.047 0.017,0.06 0.063,0.06 0.513,-0.002 1.024,-0.002 1.539,-0.002 0.358,0 0.719,0 1.078,0 0.179,0 0.293,0.086 0.327,0.256 0.017,0.073 0.02,0.152 0.009,0.228 -0.027,0.208 -0.142,0.303 -0.353,0.303 -0.684,0 -1.369,0.005 -2.055,-0.003 -0.342,-0.003 -0.58,0.256 -0.599,0.564 -0.015,0.256 -0.007,0.515 -0.009,0.771 -0.002,0.033 0.01,0.046 0.045,0.046 0.141,-10e-4 0.281,-0.003 0.423,0 0.04,0.002 0.049,-0.016 0.049,-0.051 -0.001,-0.193 -0.001,-0.391 0,-0.584 0,-0.059 0,-0.116 0.007,-0.174 0.018,-0.162 0.127,-0.314 0.346,-0.312 0.635,0.008 1.268,0.004 1.901,0.002 z m 4,-1.289 c -0.019,0 -0.028,0 -0.039,0 -0.553,0 -1.104,-0.004 -1.655,0.002 -0.185,0.004 -0.343,0.084 -0.453,0.236 -0.084,0.116 -0.117,0.248 -0.117,0.389 -0.002,0.381 0.002,0.762 -0.002,1.144 -0.002,0.224 -0.109,0.386 -0.377,0.381 -0.459,-0.008 -0.918,-0.002 -1.375,-0.002 -0.013,0 -0.023,0.001 -0.035,0 -0.03,-0.003 -0.043,0.011 -0.043,0.042 0.002,0.057 0.002,0.113 0,0.17 -0.002,0.038 0.014,0.049 0.051,0.049 0.543,0 1.086,0 1.629,0 0.143,0 0.279,-0.031 0.4,-0.109 0.188,-0.125 0.264,-0.309 0.266,-0.523 0.004,-0.369 0,-0.738 0.001,-1.107 0.001,-0.047 0.004,-0.094 0.011,-0.141 0.018,-0.139 0.105,-0.24 0.229,-0.27 0.041,-0.012 0.084,-0.014 0.127,-0.014 0.438,0 0.877,0 1.316,0 0.01,0 0.023,0.004 0.032,0 0.015,-0.01 0.033,-0.021 0.033,-0.033 0.003,-0.07 10e-4,-0.138 10e-4,-0.214 z m 5.224,-12.625 c 0,0.672 0.545,1.217 1.217,1.217 0.672,0 1.217,-0.545 1.217,-1.217 l 0,-2.502 c 0,-0.672 -0.545,-1.217 -1.217,-1.217 -0.672,0 -1.217,0.544 -1.217,1.217 l 0,2.502 z m 4.534,13.839 c 0,-1.955 -1.585,-3.539 -3.539,-3.539 -1.954,0 -3.54,1.584 -3.54,3.539 0,1.955 1.586,3.539 3.54,3.539 1.954,0 3.539,-1.583 3.539,-3.539 z M 99.56,79.247 c 0,-3.763 -3.051,-6.813 -6.812,-6.813 -3.761,0 -6.812,3.051 -6.812,6.813 0,3.762 3.051,6.812 6.812,6.812 3.761,0 6.812,-3.051 6.812,-6.812 z m -9.07,-0.118 c 0,1.096 -0.89,1.982 -1.981,1.982 -1.097,0 -1.983,-0.889 -1.983,-1.982 0,-1.093 0.888,-1.982 1.983,-1.982 1.092,-0.001 1.981,0.888 1.981,1.982 z m -0.903,-1.102 -2.158,0 0,2.156 2.158,0 0,-2.156 z m -29.183,-0.588 -2.511,0 c -0.245,0 -0.514,0.104 -0.713,0.271 l 0,-0.003 -1.43,1.309 c -0.135,0.123 -0.135,0.321 0,0.444 l 1.313,1.201 c 0.202,0.231 0.53,0.385 0.829,0.385 l 2.511,0 c 0.472,0 0.853,-0.381 0.853,-0.853 l 0,-1.902 c 10e-4,-0.471 -0.38,-0.852 -0.852,-0.852 z m 28.937,0.831 -1.668,0 0,1.67 1.668,0 0,-1.67 z"
         inkscape:connector-curvature="0"
         style="fill:#ffffff" />
    </g>
    <g
       id="g3597" />
    <g
       id="g3599" />
    <g
       id="g3601" />
    <g
       id="g3603" />
    <g
       id="g3605" />
    <g
       id="g3607" />
    <g
       id="g3609" />
    <g
       id="g3611" />
    <g
       id="g3613" />
    <g
       id="g3615" />
    <g
       id="g3617" />
    <g
       id="g3619" />
    <g
       id="g3621" />
    <g
       id="g3623" />
    <g
       id="g3625" />
  </g>
  <g
     id="g3691"
     transform="matrix(2.609143,0,0,1.6723623,1457.5675,44.250585)">
    <path
       id="path3631"
       d="m 39.774,53.5 -21.548,0 c -0.224,0 -0.311,-0.307 -0.124,-0.437 l 1.805,-1.273 c 1.947,-1.373 2.868,-3.891 2.3,-6.29 l 0,0 13.588,0 0,0.002 c -0.568,2.4 0.354,4.917 2.302,6.29 l 1.803,1.271 c 0.185,0.131 0.097,0.437 -0.126,0.437 z"
       style="fill:#afb6bb"
       inkscape:connector-curvature="0" />
    <path
       id="path3633"
       d="m 54.502,45.5 -51.004,0 C 1.566,45.5 0,43.934 0,42.002 L 0,4.998 C 0,3.066 1.566,1.5 3.498,1.5 l 51.003,0 C 56.434,1.5 58,3.066 58,4.998 l 0,37.003 c 0,1.933 -1.566,3.499 -3.498,3.499 z"
       style="fill:#e7eced"
       inkscape:connector-curvature="0" />
    <path
       id="path3635"
       d="M 58,36.5 0,36.5 0,4.998 C 0,3.066 1.566,1.5 3.498,1.5 l 51.003,0 C 56.434,1.5 58,3.066 58,4.998 L 58,36.5 Z"
       style="fill:#38454f"
       inkscape:connector-curvature="0" />
    <g
       id="g3637">
      <path
         id="path3639"
         d="m 4,10.5 c 0.256,0 0.512,-0.098 0.707,-0.293 l 4,-4 c 0.391,-0.391 0.391,-1.023 0,-1.414 -0.391,-0.391 -1.023,-0.391 -1.414,0 l -4,4 c -0.391,0.391 -0.391,1.023 0,1.414 C 3.488,10.402 3.744,10.5 4,10.5 Z"
         style="fill:#839caa"
         inkscape:connector-curvature="0" />
      <path
         id="path3641"
         d="m 4,15.5 c 0.256,0 0.512,-0.098 0.707,-0.293 l 2,-2 c 0.391,-0.391 0.391,-1.023 0,-1.414 -0.391,-0.391 -1.023,-0.391 -1.414,0 l -2,2 c -0.391,0.391 -0.391,1.023 0,1.414 C 3.488,15.402 3.744,15.5 4,15.5 Z"
         style="fill:#839caa"
         inkscape:connector-curvature="0" />
      <path
         id="path3643"
         d="M 7.29,9.79 C 7.109,9.98 7,10.24 7,10.5 7,10.76 7.109,11.02 7.29,11.21 7.479,11.39 7.729,11.5 8,11.5 8.26,11.5 8.52,11.39 8.71,11.21 8.89,11.02 9,10.76 9,10.5 9,10.24 8.89,9.98 8.71,9.79 8.33,9.42 7.67,9.42 7.29,9.79 Z"
         style="fill:#839caa"
         inkscape:connector-curvature="0" />
      <path
         id="path3645"
         d="M 9.293,9.207 C 9.488,9.402 9.744,9.5 10,9.5 c 0.256,0 0.512,-0.098 0.707,-0.293 l 3,-3 c 0.391,-0.391 0.391,-1.023 0,-1.414 -0.391,-0.391 -1.023,-0.391 -1.414,0 l -3,3 c -0.391,0.391 -0.391,1.023 0,1.414 z"
         style="fill:#839caa"
         inkscape:connector-curvature="0" />
      <path
         id="path3647"
         d="m 12.293,9.793 -9,9 c -0.391,0.391 -0.391,1.023 0,1.414 C 3.488,20.402 3.744,20.5 4,20.5 c 0.256,0 0.512,-0.098 0.707,-0.293 l 9,-9 c 0.391,-0.391 0.391,-1.023 0,-1.414 -0.391,-0.391 -1.023,-0.391 -1.414,0 z"
         style="fill:#839caa"
         inkscape:connector-curvature="0" />
      <path
         id="path3649"
         d="M 14.29,7.79 C 14.109,7.98 14,8.23 14,8.5 14,8.77 14.109,9.02 14.29,9.21 14.479,9.39 14.729,9.5 15,9.5 15.27,9.5 15.52,9.39 15.71,9.21 15.89,9.02 16,8.77 16,8.5 16,8.23 15.89,7.98 15.71,7.79 15.34,7.42 14.66,7.42 14.29,7.79 Z"
         style="fill:#839caa"
         inkscape:connector-curvature="0" />
      <path
         id="path3651"
         d="m 18.707,4.793 c -0.391,-0.391 -1.023,-0.391 -1.414,0 l -1,1 c -0.391,0.391 -0.391,1.023 0,1.414 C 16.488,7.402 16.744,7.5 17,7.5 c 0.256,0 0.512,-0.098 0.707,-0.293 l 1,-1 c 0.391,-0.391 0.391,-1.023 0,-1.414 z"
         style="fill:#839caa"
         inkscape:connector-curvature="0" />
    </g>
    <path
       id="path3653"
       d="m 40.5,56.5 -23,0 C 16.675,56.5 16,55.825 16,55 l 0,0 c 0,-0.825 0.675,-1.5 1.5,-1.5 l 23,0 c 0.825,0 1.5,0.675 1.5,1.5 l 0,0 c 0,0.825 -0.675,1.5 -1.5,1.5 z"
       style="fill:#e7eced"
       inkscape:connector-curvature="0" />
    <g
       id="g3655" />
    <g
       id="g3657" />
    <g
       id="g3659" />
    <g
       id="g3661" />
    <g
       id="g3663" />
    <g
       id="g3665" />
    <g
       id="g3667" />
    <g
       id="g3669" />
    <g
       id="g3671" />
    <g
       id="g3673" />
    <g
       id="g3675" />
    <g
       id="g3677" />
    <g
       id="g3679" />
    <g
       id="g3681" />
    <g
       id="g3683" />
  </g>
  <text
     xml:space="preserve"
     style="font-style:normal;font-weight:normal;line-height:0%;font-family:sans-serif;text-align:center;letter-spacing:0px;word-spacing:0px;text-anchor:middle;fill:#ffffff;fill-opacity:1;stroke:none;stroke-width:1px;stroke-linecap:butt;stroke-linejoin:miter;stroke-opacity:1"
     x="1530.8286"
     y="88.252151"
     id="sensor.games"
     inkscape:label="#text3586"><tspan
       sodipodi:role="line"
       x="1530.8286"
       y="88.252151"
       id="tspan3588"
       style="font-size:35px;line-height:1.25"><tspan
         x="1530.8286"
         y="88.252151"
         id="tspan3590">text</tspan></tspan></text>
  <g
     id="scene.sleep"
     transform="matrix(0.26398418,0,0,0.26398418,59.055691,873.71905)"
     inkscape:label="#g419">
    <circle
       id="circle337"
       r="256.00201"
       cy="256.00201"
       cx="256.00201"
       style="fill:#ff9800" />
    <path
       id="path339"
       d="m 512,256.001 c 0,-24.282 -3.341,-46.977 -9.529,-69.406 l -50.755,-50.755 -39.343,0.069 0.05,9.708 14.045,14.046 -16.121,22.68 v 0.077 l -19.782,-19.782 h -58.966 v 14.065 l 21.014,21.014 -3.168,4.532 L 216.458,69.261 v 0 c -99.978,4.733 -179.584,87.282 -179.584,188.43 0,50.935 20.194,97.149 53.004,131.091 l -0.027,0.027 118.803,118.803 0.006,10e-4 c 15.847,2.962 32.447,4.386 47.34,4.386 0.143,0 0.284,-0.005 0.427,-0.005 C 397.612,511.755 512,397.25 512,256.001 Z"
       style="fill:#d97616"
       inkscape:connector-curvature="0" />
    <path
       id="path341"
       d="m 312.339,372.885 c -92.203,0 -166.948,-74.745 -166.948,-166.948 0,-56.519 28.091,-106.472 71.068,-136.676 -99.977,4.732 -179.584,87.282 -179.584,188.43 0,104.19 84.462,188.651 188.651,188.651 68.467,0 128.414,-36.476 161.473,-91.054 -22.468,11.254 -47.822,17.597 -74.66,17.597 z"
       style="fill:#ffe050"
       inkscape:connector-curvature="0" />
    <polygon
       id="polygon343"
       points="230.857,300.315 306.664,300.315 306.664,282.78 259.858,282.78 308.148,213.706 308.148,202.049 234.633,202.049 234.633,219.585 279.147,219.585 230.857,288.663 "
       style="fill:#044fa6" />
    <g
       id="g349">
      <path
         id="path345"
         d="m 318.414,236.964 c -0.016,0.016 -0.04,0.023 -0.049,0.048 -0.015,0.043 0.006,0.018 0.049,-0.048 z"
         style="fill:#376bb7"
         inkscape:connector-curvature="0" />
      <polygon
         id="polygon347"
         points="328.573,241.459 389.377,241.459 389.377,227.393 351.834,227.393 390.567,171.989 390.567,162.639 331.602,162.639 331.602,176.705 367.305,176.705 328.573,232.112 "
         style="fill:#376bb7" />
    </g>
    <g
       id="g355">
      <path
         id="path351"
         d="m 403.56,185.585 c -0.011,0.011 -0.027,0.015 -0.033,0.032 -0.01,0.031 0.004,0.013 0.033,-0.032 z"
         style="fill:#639ed5"
         inkscape:connector-curvature="0" />
      <polygon
         id="polygon353"
         points="410.349,188.59 450.991,188.59 450.991,179.189 425.897,179.189 451.786,142.157 451.786,135.909 412.374,135.909 412.374,145.31 436.238,145.31 410.349,182.343 "
         style="fill:#639ed5" />
    </g>
    <g
       id="g357" />
    <g
       id="g359" />
    <g
       id="g361" />
    <g
       id="g363" />
    <g
       id="g365" />
    <g
       id="g367" />
    <g
       id="g369" />
    <g
       id="g371" />
    <g
       id="g373" />
    <g
       id="g375" />
    <g
       id="g377" />
    <g
       id="g379" />
    <g
       id="g381" />
    <g
       id="g383" />
    <g
       id="g385" />
  </g>
  <g
     id="scene.exit"
     transform="matrix(0.2880636,0,0,0.2880636,286.36874,867.60467)"
     inkscape:label="#g475">
    <rect
       id="rect375"
       height="435.89801"
       width="268.35001"
       style="fill:#6f6f74"
       y="12.951"
       x="243.657" />
    <rect
       id="rect377"
       height="435.89801"
       width="180.98599"
       style="fill:#5e5d61"
       y="12.951"
       x="331.01099" />
    <polygon
       id="polygon379"
       points="512,12.951 390.509,60.668 390.509,499.056 512,448.706 "
       style="fill:#e3e3e6" />
    <polygon
       id="polygon381"
       points="458.597,33.926 458.597,470.838 512,448.706 512,12.951 "
       style="fill:#c8c7cc" />
    <polygon
       id="polygon383"
       points="68.917,359.069 98.956,359.069 98.956,417.888 46.393,417.888 46.393,433.833 16.354,433.833 16.354,387.849 68.917,387.849 "
       style="fill:#ffd699" />
    <polygon
       id="polygon385"
       points="170.651,418.813 190.505,418.813 190.505,448.852 148.43,448.852 115.755,342.104 144.478,333.312 "
       style="fill:#ffc266" />
    <polygon
       id="polygon387"
       points="106.138,337.708 122.276,363.408 180.718,363.408 153.13,265.995 50.201,265.995 50.201,363.408 99.797,363.408 "
       style="fill:#4cbcf0" />
    <polygon
       id="polygon389"
       points="180.718,363.408 153.13,265.995 106.138,265.995 106.138,337.707 122.276,363.408 "
       style="fill:#3a95be" />
    <polygon
       id="polygon391"
       points="106.138,176.164 106.138,206.203 57.847,206.203 30.039,227.613 30.039,273.624 0,273.624 0,212.83 47.624,176.164 "
       style="fill:#ffd699" />
    <polygon
       id="polygon393"
       points="198.896,129.463 226.993,140.09 201.959,206.274 127.28,206.274 127.28,176.235 181.206,176.235 "
       style="fill:#ffc266" />
    <path
       id="path395"
       d="m 106.507,55.674 c -31.047,0 -56.305,25.259 -56.305,56.305 0,31.046 25.259,56.305 56.305,56.305 31.046,0 56.304,-25.259 56.304,-56.305 0,-31.046 -25.258,-56.305 -56.304,-56.305 z"
       style="fill:#ffd699"
       inkscape:connector-curvature="0" />
    <path
       id="path397"
       d="m 106.507,168.285 c 31.046,0 56.304,-25.259 56.304,-56.305 0,-31.046 -25.259,-56.305 -56.304,-56.305"
       style="fill:#ffc266"
       inkscape:connector-curvature="0" />
    <rect
       id="rect399"
       height="123.09"
       width="112.607"
       style="fill:#fc0023"
       y="176.233"
       x="50.205002" />
    <rect
       id="rect401"
       height="123.09"
       width="56.674"
       style="fill:#c80018"
       y="176.233"
       x="106.138" />
    <polygon
       id="polygon403"
       points="191.583,267.283 318.123,267.283 298.45,286.957 319.689,308.197 375.624,252.263 319.689,196.329 298.45,217.57 318.123,237.244 191.583,237.244 "
       style="fill:#4cbcf0" />
    <polygon
       id="polygon405"
       points="319.689,308.197 375.624,252.263 375.624,252.263 191.583,252.263 191.583,267.283 318.123,267.283 298.45,286.957 "
       style="fill:#3a95be" />
    <g
       id="g407" />
    <g
       id="g409" />
    <g
       id="g411" />
    <g
       id="g413" />
    <g
       id="g415" />
    <g
       id="g417" />
    <g
       id="g419" />
    <g
       id="g421" />
    <g
       id="g423" />
    <g
       id="g425" />
    <g
       id="g427" />
    <g
       id="g429" />
    <g
       id="g431" />
    <g
       id="g433" />
    <g
       id="g435" />
  </g>
  <g
     id="light.yeelight_strip_286c072f6ce6"
     transform="matrix(0.00672882,0.53224834,-0.40256883,2.7502035e-4,1237.2792,466.45661)"
     inkscape:transform-center-x="19.218797"
     inkscape:transform-center-y="5.2828467"
     inkscape:label="#g557">
    <rect
       id="rect427"
       height="34.084999"
       width="13.193"
       style="fill:#2ba5f7"
       y="174.121"
       x="443.02399" />
    <path
       id="path429"
       d="m 488.352,240.814 -5.469,64.225 c -1.475,17.271 -15.915,30.547 -33.258,30.547 -17.33,0 -31.782,-13.277 -33.246,-30.547 l -5.469,-64.225 41.785,-12.077 z"
       style="fill:#9ad14b"
       inkscape:connector-curvature="0" />
    <g
       id="g437">
      <path
         id="path431"
         d="m 436.695,304.44 -1.654,-70.599 -24.131,6.974 5.469,64.225 c 1.445,17.052 15.554,30.202 32.592,30.532 -6.446,-0.866 -11.72,-14.424 -12.276,-31.132 z"
         style="fill:#90bc42"
         inkscape:connector-curvature="0" />
      <polygon
         id="polygon433"
         points="435.042,233.839 452.696,228.736 464.249,232.65 464.69,213.83 434.573,213.83 "
         style="fill:#90bc42" />
      <path
         id="path435"
         d="m 448.972,335.57 c 0.217,0.029 0.434,0.046 0.654,0.046 0.22,0 0.437,-0.017 0.654,-0.046 -0.218,0.005 -0.434,0.016 -0.654,0.016 -0.22,-0.001 -0.436,-0.011 -0.654,-0.016 z"
         style="fill:#90bc42"
         inkscape:connector-curvature="0" />
    </g>
    <path
       id="path439"
       d="m 455.095,204.606 c 19.549,0 34.913,16.731 33.258,36.208 h -77.441 c -1.655,-19.477 13.708,-36.208 33.258,-36.208 h 5.457 z"
       style="fill:#999999"
       inkscape:connector-curvature="0" />
    <g
       id="g445">
      <rect
         id="rect441"
         height="34.097"
         width="13.193"
         style="fill:#2ba5f7"
         y="197.688"
         x="313.94" />
      <path
         id="path443"
         d="m 359.267,264.393 -5.469,64.225 c -1.475,17.27 -15.915,30.547 -33.258,30.547 -17.33,0 -31.782,-13.277 -33.246,-30.547 l -5.469,-64.225 41.341,-16.467 z"
         style="fill:#2ba5f7"
         inkscape:connector-curvature="0" />
    </g>
    <path
       id="path447"
       d="m 307.611,327.923 -1.654,-70.599 -24.131,6.974 5.469,64.225 c 1.445,17.052 15.554,30.202 32.592,30.532 -6.446,-0.865 -11.721,-14.423 -12.276,-31.132 z"
       style="fill:#2197d8"
       inkscape:connector-curvature="0" />
    <path
       id="path449"
       d="m 326.01,228.185 c 19.549,0 34.913,16.731 33.258,36.208 h -77.441 c -1.655,-19.477 13.708,-36.208 33.258,-36.208 h 5.457 z"
       style="fill:#999999"
       inkscape:connector-curvature="0" />
    <rect
       id="rect451"
       height="34.097"
       width="13.193"
       style="fill:#2ba5f7"
       y="197.688"
       x="184.855" />
    <path
       id="path453"
       d="m 230.171,264.393 -5.457,64.225 c -1.475,17.27 -15.927,30.547 -33.258,30.547 -17.331,0 -31.782,-13.277 -33.258,-30.547 l -5.457,-64.225 42.696,-14.068 z"
       style="fill:#f7b239"
       inkscape:connector-curvature="0" />
    <path
       id="path455"
       d="m 178.526,327.923 -1.654,-70.599 -24.131,6.974 5.469,64.225 c 1.445,17.052 15.554,30.202 32.592,30.532 -6.446,-0.865 -11.721,-14.423 -12.276,-31.132 z"
       style="fill:#e09b2d"
       inkscape:connector-curvature="0" />
    <path
       id="path457"
       d="m 196.925,228.185 c 19.549,0 34.913,16.731 33.246,36.208 h -77.429 c -1.655,-19.477 13.696,-36.208 33.246,-36.208 h 5.469 z"
       style="fill:#999999"
       inkscape:connector-curvature="0" />
    <rect
       id="rect459"
       height="34.084999"
       width="13.193"
       style="fill:#2ba5f7"
       y="174.121"
       x="55.77" />
    <path
       id="path461"
       d="m 101.086,240.814 -5.457,64.225 c -1.475,17.271 -15.927,30.547 -33.258,30.547 -17.331,0 -31.782,-13.277 -33.258,-30.547 L 23.656,240.814 59.912,222.14 Z"
       style="fill:#f95428"
       inkscape:connector-curvature="0" />
    <path
       id="path463"
       d="m 49.441,304.455 -1.654,-70.599 -24.131,6.974 5.469,64.225 c 1.445,17.052 15.554,30.202 32.592,30.532 -6.446,-0.865 -11.721,-14.423 -12.276,-31.132 z"
       style="fill:#e54728"
       inkscape:connector-curvature="0" />
    <path
       id="path465"
       d="m 67.84,204.606 c 19.549,0 34.913,16.731 33.246,36.208 H 23.657 C 21.99,221.337 37.353,204.606 56.903,204.606 h 5.469 z"
       style="fill:#999999"
       inkscape:connector-curvature="0" />
    <g
       id="g475">
      <path
         id="path467"
         d="m 449.626,204.606 h -5.457 c -19.549,0 -34.913,16.731 -33.258,36.208 h 24.276 c -1.461,-17.195 10.346,-32.242 26.582,-35.533 -2.155,-0.437 -4.385,-0.675 -6.676,-0.675 z"
         style="fill:#666666"
         inkscape:connector-curvature="0" />
      <path
         id="path469"
         d="m 320.541,228.186 h -5.457 c -19.549,0 -34.913,16.731 -33.258,36.208 h 24.276 c -1.461,-17.195 10.345,-32.242 26.582,-35.533 -2.155,-0.437 -4.385,-0.675 -6.676,-0.675 z"
         style="fill:#666666"
         inkscape:connector-curvature="0" />
      <path
         id="path471"
         d="m 191.456,228.186 h -5.469 c -19.549,0 -34.901,16.731 -33.246,36.208 h 24.276 c -1.461,-17.197 10.338,-32.245 26.577,-35.534 -2.153,-0.437 -4.381,-0.674 -6.67,-0.674 z"
         style="fill:#666666"
         inkscape:connector-curvature="0" />
      <path
         id="path473"
         d="m 62.371,204.606 h -5.469 c -19.549,0 -34.913,16.731 -33.246,36.208 h 24.276 c -1.472,-17.197 10.336,-32.245 26.576,-35.534 -2.153,-0.437 -4.381,-0.674 -6.67,-0.674 z"
         style="fill:#666666"
         inkscape:connector-curvature="0" />
    </g>
    <path
       id="path477"
       d="m 256.001,209.457 c -85.251,0 -170.502,-14.604 -251.637,-43.815 -3.428,-1.234 -5.206,-5.013 -3.972,-8.441 1.233,-3.428 5.008,-5.208 8.441,-3.972 159.387,57.384 334.945,57.384 494.335,0 3.426,-1.234 7.206,0.543 8.441,3.972 1.234,3.428 -0.544,7.207 -3.972,8.441 -81.135,29.211 -166.386,43.815 -251.636,43.815 z"
       style="fill:#f95428"
       inkscape:connector-curvature="0" />
    <g
       id="g479" />
    <g
       id="g481" />
    <g
       id="g483" />
    <g
       id="g485" />
    <g
       id="g487" />
    <g
       id="g489" />
    <g
       id="g491" />
    <g
       id="g493" />
    <g
       id="g495" />
    <g
       id="g497" />
    <g
       id="g499" />
    <g
       id="g501" />
    <g
       id="g503" />
    <g
       id="g505" />
    <g
       id="g507" />
  </g>
  <rect
     style="opacity:0;fill:#ffffff;stroke:none;stroke-width:20;stroke-miterlimit:4;stroke-dasharray:none;stroke-opacity:1"
     id="sensor.moon"
     width="142.63686"
     height="135.59306"
     x="501.87042"
     y="873.96899"
     inkscape:label="#rect361" />
</svg>
